<svg id="Group_275" data-name="Group 275" xmlns="http://www.w3.org/2000/svg" width="70.015" height="72.897" viewBox="0 0 70.015 72.897">
  <path id="Path_142" data-name="Path 142" d="M-1675.25-63.217H-1672c5.256,0,10.513.061,15.768-.031,2.011-.035,2.939.483,2.884,2.72-.133,5.455-.114,10.917-.007,16.373.041,2.092-.632,2.836-2.781,2.824q-20.316-.114-40.633,0c-2.132.012-2.806-.7-2.792-2.81q.113-17.89,0-35.781c-.015-2.18.78-2.79,2.843-2.758,6.164.1,12.331.019,18.5.041,2.894.01,2.96.093,2.973,3.152.017,4.346,0,8.693,0,13.039Zm-21.723-.162h19.12V-80.012h-4.387c-.3,2.384.177,5.507-1.036,6.447-1.495,1.158-4.4.5-6.693.621-.1.006-.2-.007-.3,0-1.414.055-2-.653-1.974-2.034.036-1.683.008-3.368.008-5.029h-4.737Zm19.1,19.448V-60.565h-4.356c-.32,2.4.133,5.394-1.1,6.48-1.291,1.141-4.2.406-6.39.587-2.06.17-2.679-.815-2.551-2.708.1-1.471.02-2.955.02-4.357h-4.715v16.632Zm17.186-16.725c0,1.806-.043,3.406.012,5,.054,1.561-.653,2.195-2.184,2.149q-2.726-.08-5.455,0c-1.611.048-2.128-.771-2.083-2.247.049-1.59.011-3.183.011-4.867h-4.663v16.6h19.084V-60.656Zm-28.92-19.451V-75.5h4.48v-4.606Zm4.507,19.51h-4.5v4.517h4.5Zm17.376-.146v4.607h4.391v-4.607Z" transform="translate(1699.568 114.228)" fill="#dc4029"/>
  <path id="Path_143" data-name="Path 143" d="M-1604.019-227.616v-2.136a3.816,3.816,0,0,0-.914-.268c-1.821-.029-3.643-.076-5.462-.02-2.473.076-3.2.8-3.224,3.341-.049,5.058-.016,10.116-.016,15.174,0,1,0,1.991,0,3.146h-2.174a4.318,4.318,0,0,1-.221-.921c-.016-5.867-.058-11.735-.007-17.6.033-3.762,1.835-5.509,5.642-5.56,3.528-.047,7.057-.01,10.488-.01.126-.325.2-.415.189-.5-.42-4.361-.42-4.361,4.2-4.361,1.518,0,3.035-.021,4.552,0,2.866.048,2.965.186,2.407,2.96-.1.488-.136.988-.256,1.893,3.422,0,6.711-.009,10,0,4.914.017,6.457,1.584,6.466,6.586.011,6.161,0,12.321,0,18.715l-2.17.14a7.616,7.616,0,0,1-.231-1.261c-.016-5.969,0-11.937-.025-17.906-.015-3.28-.595-3.822-3.942-3.854-1.807-.017-3.614,0-5.585,0v2.438c1.231,0,2.42,0,3.61,0,3.472.016,3.48.018,3.484,3.564.007,5.957,0,11.915,0,18.11l-2.405.128v-19.238h-29.056v16.667h-2.224a1.946,1.946,0,0,1-.249-.6c-.028-5.361.022-10.723-.089-16.082-.042-2.043.8-2.707,2.71-2.568C-1607.121-227.534-1605.711-227.616-1604.019-227.616Zm2.63,0c4.455,0,8.593,0,12.731,0,.49,0,.98-.068,1.589-.112v-2.041c-1.5-.252-3.437-.031-4.049-.829-.682-.89-.156-2.707-.156-4.305-1.452,0-2.758-.015-4.063.007-.6.01-1.19.09-1.783.139.268,4.218.268,4.218-4.268,5.085Z" transform="translate(1633.095 237.34)" fill="#dc4029"/>
  <path id="Path_144" data-name="Path 144" d="M-1562.362-67.613c2.1-2.99,4.189-5.2,7.573-6.14,9.435-2.621,18.784-5.551,28.172-8.346,3.433-1.022,5.417-.392,6.091,1.884.7,2.37-.484,3.89-3.9,5.02-.662.219-1.313.471-1.9.684a3,3,0,0,0-.2.678c-.07,4.379-.065,4.389-4.282,5.645-1.825.544-3.664,1.042-5.555,1.577-.755-1.26-1.09-2.161.6-2.632,1.75-.486,3.459-1.134,5.222-1.563,1.613-.392,1.885-1.239,1.164-2.844-3.2.93-6.385,1.836-9.558,2.782q-7.4,2.207-14.792,4.458C-1556.8-65.481-1559.55-66.5-1562.362-67.613Zm32.8-11.075c-6.035,1.79-11.983,3.527-17.9,5.368-.412.128-.588,1.019-.874,1.555.566.233,1.222.783,1.685.652,5.406-1.537,10.778-3.191,16.17-4.777C-1528.981-76.331-1528.973-77.212-1529.558-78.688Zm-28.365,9.5.23.988,7.381-1.669-.941-2.367C-1553.639-71.267-1556.357-71.471-1557.923-69.191Z" transform="translate(1590.348 114.141)" fill="#dc4029"/>
  <path id="Path_145" data-name="Path 145" d="M-1460.415,16.445V14.054c2.124,0,4.13.039,6.134-.009,2.678-.065,3.361-.75,3.4-3.482.047-3.128.011-6.258.011-9.6l2.358-.3c0,3.966.145,7.787-.053,11.591a4.478,4.478,0,0,1-4.484,4.162C-1455.449,16.556-1457.866,16.445-1460.415,16.445Z" transform="translate(1509.196 47.884)" fill="#dc4029"/>
  <path id="Path_146" data-name="Path 146" d="M-1564.487-165.87c3.39.018,3.39.018,3.363,3.99-.023,3.322-.023,3.322-4.068,3.286-3.223-.029-3.223-.029-3.208-3.84C-1568.388-165.891-1568.388-165.891-1564.487-165.87Z" transform="translate(1595.157 180.45)" fill="#dc4029"/>
  <path id="Path_147" data-name="Path 147" d="M-1564.6-105c-3.792.012-3.792.012-3.8-3.555-.005-3.721-.005-3.721,3.629-3.721s3.632,0,3.647,3.4C-1561.1-105.011-1561.1-105.011-1564.6-105Z" transform="translate(1595.151 137.786)" fill="#dc4029"/>
  <path id="Path_148" data-name="Path 148" d="M-1520.166-139.044v-2.091h14.255v2.091Z" transform="translate(1556.759 160.758)" fill="#dc4029"/>
  <path id="Path_149" data-name="Path 149" d="M-1506.46-87.512v2.076h-14.173c-.082-.582-.172-1.221-.293-2.076Z" transform="translate(1557.364 118.073)" fill="#dc4029"/>
  <path id="Path_150" data-name="Path 150" d="M-1456.276,7.6h2.445c0,2.63-.015,5.123.006,7.615.012,1.424-.717,1.958-2.066,1.927-1.6-.036-3.193-.008-5.016-.008-.055-.778-.1-1.416-.159-2.267l4.791-.281Z" transform="translate(1509.714 42.357)" fill="#dc4029"/>
  <path id="Path_151" data-name="Path 151" d="M-1496.109-163.083v-2.1h9.321c.06.631.12,1.273.2,2.1Z" transform="translate(1537.609 179.904)" fill="#dc4029"/>
  <path id="Path_152" data-name="Path 152" d="M-1496.914-111.694h9.525v2.166h-9.322C-1496.77-110.162-1496.83-110.8-1496.914-111.694Z" transform="translate(1538.25 137.322)" fill="#dc4029"/>
</svg>
