<svg id="Group_232" data-name="Group 232" xmlns="http://www.w3.org/2000/svg" width="76.417" height="76.414" viewBox="0 0 76.417 76.414">
  <path id="Path_163" data-name="Path 163" d="M-528.307-950.137a13.705,13.705,0,0,1-2.427-1.066,5.56,5.56,0,0,1-2.478-5.826,5.585,5.585,0,0,1,3.975-4.6.855.855,0,0,0,.72-.972c-.03-3.954-.016-7.909-.016-11.863v-.724h-10.933c0,.268,0,.533,0,.8,0,1.716.02,3.432-.007,5.148a4.674,4.674,0,0,1-4.791,4.754c-2.935.024-5.869.006-8.8.006h-.835a6.041,6.041,0,0,1-2.728,3.894,5.861,5.861,0,0,1-7.159-.764,5.875,5.875,0,0,1-1.085-7.12,5.846,5.846,0,0,1,6.4-2.886c.833.206,1.224.731,1.056,1.42-.155.635-.724.914-1.543.757a3.632,3.632,0,0,0-3.974,1.832,3.645,3.645,0,0,0,.639,4.331,3.638,3.638,0,0,0,4.267.653,3.606,3.606,0,0,0,1.875-4.011c-.149-.777.114-1.337.71-1.515.708-.212,1.167.117,1.573,1.17h3.7c1.94,0,3.88.011,5.82,0a2.465,2.465,0,0,0,2.648-2.662c.013-1.913,0-3.825,0-5.824-.3-.013-.564-.031-.826-.035-1.566-.024-3.142.061-4.7-.091a5.731,5.731,0,0,1-5.22-5.661q-.092-7.348,0-14.7a5.865,5.865,0,0,1,6.039-5.739c1.535-.025,3.072,0,4.7,0,0-1.382,0-2.692,0-4,0-.7.016-1.393-.008-2.089a2.378,2.378,0,0,0-2.348-2.417c-3.255-.044-6.511-.014-9.823-.014a6.063,6.063,0,0,1-3.346,4.232,5.779,5.779,0,0,1-4,.354,5.935,5.935,0,0,1-4.374-6.169,5.923,5.923,0,0,1,5.365-5.413,5.959,5.959,0,0,1,6.341,4.752h.78q4.29,0,8.58,0a4.725,4.725,0,0,1,5.071,5.079c.006,1.86,0,3.72,0,5.632h10.891c.015-.27.041-.512.041-.753,0-3.954-.006-7.909.011-11.863a.8.8,0,0,0-.664-.937,5.841,5.841,0,0,1-4.037-6.64,5.935,5.935,0,0,1,5.788-4.863,5.915,5.915,0,0,1,5.838,4.89,5.874,5.874,0,0,1-4.063,6.634c-.374.122-.645.213-.643.721.023,4.153.015,8.307.018,12.46a3.026,3.026,0,0,0,.046.347h10.881c0-.276,0-.541,0-.806,0-1.716-.02-3.432.007-5.148a4.67,4.67,0,0,1,4.8-4.748c2.935-.022,5.87-.005,8.8-.005h.82a5.765,5.765,0,0,1,4.1-4.475,8.736,8.736,0,0,1,2.859-.146,1.128,1.128,0,0,1,1.18,1.32c-.11.7-.708,1.022-1.619.863a3.639,3.639,0,0,0-4.188,4.691,3.673,3.673,0,0,0,4.386,2.423,3.608,3.608,0,0,0,2.676-4.213c-.126-.635-.11-1.2.541-1.544a.959.959,0,0,1,1.281.234,5.066,5.066,0,0,1,.509,1.127v1.791c-.08.229-.17.455-.238.688a5.9,5.9,0,0,1-9.717,2.657,6.224,6.224,0,0,1-1.759-3.114,1.375,1.375,0,0,0-.255-.057c-3.159,0-6.318-.024-9.477,0a2.408,2.408,0,0,0-2.463,2.536c-.021,1.542-.006,3.084-.006,4.627,0,.436,0,.872,0,1.354,1.66,0,3.2-.025,4.739.005a5.863,5.863,0,0,1,6,5.777c.065,4.875.054,9.751,0,14.626a5.752,5.752,0,0,1-4.534,5.584,13.41,13.41,0,0,1-2.593.192c-1.184.03-2.369.007-3.617.007,0,1.986-.006,3.872,0,5.757a2.494,2.494,0,0,0,2.769,2.767c2.338.006,4.677,0,7.015,0h2.392c.052-.17.086-.285.121-.4a5.867,5.867,0,0,1,5.944-4.375,5.873,5.873,0,0,1,5.543,4.687,1.275,1.275,0,0,0,.13.255v1.791c-.08.259-.158.519-.239.778a5.708,5.708,0,0,1-4.4,4.121,5.534,5.534,0,0,1-5.8-2.02,17.458,17.458,0,0,1-1.47-2.6h-.66c-2.909,0-5.818.013-8.727,0a4.688,4.688,0,0,1-4.856-4.839c-.019-1.691,0-3.382,0-5.073,0-.263,0-.527,0-.788h-10.933v.727c0,3.953.014,7.907-.015,11.86a.845.845,0,0,0,.723.969,5.848,5.848,0,0,1,4.073,5.641,5.925,5.925,0,0,1-4.38,5.653c-.211.058-.417.133-.626.2Zm.972-49.066q-9.363,0-18.725,0c-2.686,0-4.169,1.475-4.171,4.139q0,6.714,0,13.428c0,2.666,1.485,4.146,4.164,4.147q18.65,0,37.3,0c2.707,0,4.172-1.484,4.173-4.215q0-6.64,0-13.279c0-2.767-1.46-4.219-4.241-4.22Q-518.084-999.205-527.334-999.2Zm-.133-17.791a3.659,3.659,0,0,0,3.72-3.655,3.675,3.675,0,0,0-3.645-3.663,3.676,3.676,0,0,0-3.682,3.625A3.662,3.662,0,0,0-527.467-1016.994Zm-32.236,9.567a3.639,3.639,0,0,0,3.644-3.646,3.671,3.671,0,0,0-3.63-3.676,3.685,3.685,0,0,0-3.689,3.7A3.654,3.654,0,0,0-559.7-1007.427Zm60.941,41.808a3.675,3.675,0,0,0,3.63,3.676,3.694,3.694,0,0,0,3.689-3.7,3.656,3.656,0,0,0-3.677-3.62A3.631,3.631,0,0,0-498.763-965.618Zm-28.653,13.24a3.676,3.676,0,0,0,3.668-3.641,3.657,3.657,0,0,0-3.621-3.678,3.658,3.658,0,0,0-3.707,3.669A3.682,3.682,0,0,0-527.416-952.378Z" transform="translate(565.62 1026.551)" fill="#dc4029"/>
  <path id="Path_164" data-name="Path 164" d="M-418.684-922.408c-.6,0-1.192.013-1.787-.005a1.042,1.042,0,0,1-1.084-1.011,1.048,1.048,0,0,1,.986-1.182c1.263-.054,2.531-.053,3.794,0a1.044,1.044,0,0,1,1,1.161,1.053,1.053,0,0,1-1.128,1.037C-417.492-922.389-418.088-922.407-418.684-922.408Z" transform="translate(450.286 944.965)" fill="#dc4029"/>
  <path id="Path_165" data-name="Path 165" d="M-352.677-922.42c-.571,0-1.143.02-1.712-.006a1.05,1.05,0,0,1-1.1-1.069,1.051,1.051,0,0,1,1.04-1.133c1.239-.045,2.482-.045,3.721,0a1.079,1.079,0,0,1,1.034,1.15,1.08,1.08,0,0,1-1.125,1.052C-351.435-922.4-352.056-922.419-352.677-922.42Z" transform="translate(397.384 944.977)" fill="#dc4029"/>
  <path id="Path_166" data-name="Path 166" d="M-418.652-756.474c.62,0,1.242-.021,1.861.006a1,1,0,0,1,1.051,1.03.975.975,0,0,1-.925,1.144,37.476,37.476,0,0,1-3.939,0,.98.98,0,0,1-.911-1.159,1.019,1.019,0,0,1,1.076-1.013C-419.843-756.489-419.247-756.475-418.652-756.474Z" transform="translate(450.252 810.331)" fill="#dc4029"/>
  <path id="Path_167" data-name="Path 167" d="M-413.2-946.4c-.422,0-.844.02-1.265,0a1.023,1.023,0,0,1-1.045-1.043.972.972,0,0,1,.869-1.121,15.957,15.957,0,0,1,2.817-.007.979.979,0,0,1,.892,1.169,1.022,1.022,0,0,1-1.078,1.006c-.4.02-.793,0-1.19,0Z" transform="translate(445.445 964.168)" fill="#dc4029"/>
  <path id="Path_168" data-name="Path 168" d="M-353.2-946.4c-.4,0-.794.016-1.19,0a1.023,1.023,0,0,1-1.079-1.005.978.978,0,0,1,.891-1.169,15.961,15.961,0,0,1,2.818.007.973.973,0,0,1,.87,1.12,1.021,1.021,0,0,1-1.044,1.044c-.42.026-.843,0-1.264,0Z" transform="translate(397.373 964.169)" fill="#dc4029"/>
  <path id="Path_169" data-name="Path 169" d="M-413.27-732.485c.422,0,.845-.021,1.265.006a1.012,1.012,0,0,1,1.039,1.042.991.991,0,0,1-.934,1.139,17.7,17.7,0,0,1-2.673.01,1.053,1.053,0,0,1-.975-1.191,1.047,1.047,0,0,1,1.089-1.005C-414.064-732.5-413.667-732.486-413.27-732.485Z" transform="translate(445.479 791.125)" fill="#dc4029"/>
  <path id="Path_170" data-name="Path 170" d="M-467.446-754.694c.006,1.141-.347,1.681-1.1,1.686s-1.137-.565-1.135-1.674a3.919,3.919,0,0,1,.037-.814,1.036,1.036,0,0,1,1.159-.919,1.026,1.026,0,0,1,1.031,1.052C-467.43-755.141-467.446-754.917-467.446-754.694Z" transform="translate(488.809 810.28)" fill="#dc4029"/>
  <path id="Path_171" data-name="Path 171" d="M-467.426-928.771a6.069,6.069,0,0,1,0,.668,1.019,1.019,0,0,1-1.006,1,.977.977,0,0,1-1.144-.831,5.557,5.557,0,0,1-.008-1.694.99.99,0,0,1,1.125-.866,1.036,1.036,0,0,1,1.038,1.055c.014.222,0,.446,0,.669Z" transform="translate(488.784 949.651)" fill="#dc4029"/>
  <path id="Path_172" data-name="Path 172" d="M-491.444-928.847c0,1.2-.345,1.724-1.14,1.7-.759-.021-1.095-.54-1.094-1.7a5.344,5.344,0,0,1,.014-.669,1.145,1.145,0,0,1,1.148-1.05,1.115,1.115,0,0,1,1.07,1.117C-491.432-929.244-491.444-929.045-491.444-928.847Z" transform="translate(508.025 949.699)" fill="#dc4029"/>
  <path id="Path_173" data-name="Path 173" d="M-491.432-754.754c.01,1.2-.349,1.753-1.118,1.738s-1.116-.577-1.109-1.773a3.059,3.059,0,0,1,.056-.811,1.031,1.031,0,0,1,1.161-.824,1.024,1.024,0,0,1,1.005,1A6.069,6.069,0,0,1-491.432-754.754Z" transform="translate(508.008 810.289)" fill="#dc4029"/>
  <path id="Path_174" data-name="Path 174" d="M-289.635-754.6c.026-.3-.055-.687.1-.864.282-.316.719-.7,1.074-.686a1.382,1.382,0,0,1,.982.783,3.586,3.586,0,0,1,.056,1.611,1.019,1.019,0,0,1-1.137.947,1.031,1.031,0,0,1-1.046-1.046c-.017-.247,0-.5,0-.743Z" transform="translate(344.663 810.067)" fill="#dc4029"/>
  <path id="Path_175" data-name="Path 175" d="M-287.306-928.783a4.845,4.845,0,0,1-.086.808,1.022,1.022,0,0,1-1.159.823,1.006,1.006,0,0,1-1-1,9.842,9.842,0,0,1-.009-1.263,1.109,1.109,0,0,1,1.044-1.138,1.14,1.14,0,0,1,1.166,1.028,5.379,5.379,0,0,1,.006.742Z" transform="translate(344.614 949.697)" fill="#dc4029"/>
  <path id="Path_176" data-name="Path 176" d="M-265.542-928.893c0-.05,0-.1,0-.149.005-1,.395-1.53,1.115-1.525s1.117.554,1.123,1.538c0,.248.013.5-.007.743a1.11,1.11,0,0,1-1.128,1.135,1.081,1.081,0,0,1-1.1-1.147c-.011-.2,0-.4,0-.595Z" transform="translate(325.375 949.704)" fill="#dc4029"/>
  <path id="Path_177" data-name="Path 177" d="M-263.319-754.743a4.742,4.742,0,0,1-.056.813,1.051,1.051,0,0,1-1.118.894,1.031,1.031,0,0,1-1.064-1.029,10.557,10.557,0,0,1-.009-1.189,1.077,1.077,0,0,1,1.063-1.18,1.112,1.112,0,0,1,1.166,1.171c.012.173,0,.347,0,.52Z" transform="translate(325.404 810.294)" fill="#dc4029"/>
  <path id="Path_178" data-name="Path 178" d="M-352.584-756.486c.571,0,1.142-.015,1.712,0a1.1,1.1,0,0,1,1.184,1.07,1.083,1.083,0,0,1-1.051,1.136c-1.239.044-2.482.046-3.721,0a1.048,1.048,0,0,1-1.023-1.147,1.047,1.047,0,0,1,1.112-1.053C-353.776-756.5-353.18-756.485-352.584-756.486Z" transform="translate(397.382 810.339)" fill="#dc4029"/>
  <path id="Path_179" data-name="Path 179" d="M-353.2-732.483c.422,0,.844-.017,1.264.005a1.018,1.018,0,0,1,1.053,1.034,1,1,0,0,1-.931,1.146,15.939,15.939,0,0,1-2.745-.006.982.982,0,0,1-.9-1.163,1.019,1.019,0,0,1,1.069-1.014C-354-732.5-353.6-732.484-353.2-732.483Z" transform="translate(397.369 791.123)" fill="#dc4029"/>
  <path id="Path_180" data-name="Path 180" d="M-391.786-858.638a5.916,5.916,0,0,1-5.86,5.906,5.92,5.92,0,0,1-5.943-5.9,5.916,5.916,0,0,1,5.86-5.9A5.914,5.914,0,0,1-391.786-858.638Zm-5.893-3.657a3.671,3.671,0,0,0-3.672,3.634,3.675,3.675,0,0,0,3.616,3.69,3.675,3.675,0,0,0,3.709-3.673A3.669,3.669,0,0,0-397.678-862.3Z" transform="translate(435.896 896.839)" fill="#dc4029"/>
  <path id="Path_181" data-name="Path 181" d="M-451.714-852.714a5.734,5.734,0,0,1-4.15-1.662,1.1,1.1,0,0,1-.1-1.649,1.1,1.1,0,0,1,1.651.059,3.344,3.344,0,0,0,2.859.959,1.393,1.393,0,0,0,1.342-1.1c.118-.7-.449-1.007-.975-1.241-.838-.373-1.7-.681-2.551-1.037a2.926,2.926,0,0,1-2.075-3.223,3.321,3.321,0,0,1,2.791-2.813,5.331,5.331,0,0,1,4.216,1.041,1.119,1.119,0,0,1,.322,1.627,1.082,1.082,0,0,1-1.584.2,3.011,3.011,0,0,0-2.658-.6,1.5,1.5,0,0,0-.811.9c-.056.187.369.642.668.787.892.431,1.848.727,2.744,1.151a3.286,3.286,0,0,1,2,4.133A3.886,3.886,0,0,1-451.714-852.714Z" transform="translate(478.091 896.824)" fill="#dc4029"/>
  <path id="Path_182" data-name="Path 182" d="M-330.787-856.858c0,.815,0,1.58,0,2.345a4.906,4.906,0,0,1-.029.743,1.079,1.079,0,0,1-1.187.986,1.019,1.019,0,0,1-1.009-1.083q-.018-4.806,0-9.612a1.011,1.011,0,0,1,1.094-1.074,26.626,26.626,0,0,1,3.2.052,3.761,3.761,0,0,1,3.339,3.691,3.8,3.8,0,0,1-3.221,3.8C-329.282-856.909-329.979-856.911-330.787-856.858Zm.056-2.384c1.5.259,2.414.025,2.869-.718a1.4,1.4,0,0,0-.059-1.666c-.745-1.012-1.81-.634-2.81-.7Z" transform="translate(379.399 896.872)" fill="#dc4029"/>
</svg>
