<svg xmlns="http://www.w3.org/2000/svg" width="78.086" height="67.629" viewBox="0 0 78.086 67.629">
  <g id="Group_242" data-name="Group 242" transform="translate(0 0)">
    <g id="Group_240" data-name="Group 240" transform="translate(0)">
      <path id="Path_210" data-name="Path 210" d="M1372.537-466.4h-41.211c-.328-.113-.661-.214-.984-.34-2.078-.81-3.177-2.581-3.177-5.127q0-28.332,0-56.664c0-.22,0-.44.012-.66a4.921,4.921,0,0,1,5.07-4.834q19.681-.01,39.361.006a5.654,5.654,0,0,1,1.558.219,4.934,4.934,0,0,1,3.528,5.063q.014,8.09,0,16.18v.895h15.339c1.341,0,1.569.23,1.569,1.587q0,11.293,0,22.586c0,1.366-.214,1.583-1.558,1.584-4.887,0-9.774.009-14.661-.012-.555,0-.7.166-.7.708.025,2.686.015,5.371.01,8.057,0,2.047.041,4.1-.044,6.14a4.818,4.818,0,0,1-3.567,4.424C1372.9-466.533,1372.72-466.462,1372.537-466.4Zm-39.428-57.684v.908q0,6.109,0,12.217c0,.85-.352,1.274-1,1.266-.627-.008-.972-.421-.973-1.227q-.009-6.967,0-13.934c0-.929.345-1.245,1.3-1.247q2.938,0,5.877,0h.706v-5.944h-6.428c-2.3,0-3.439,1.14-3.439,3.451q0,28.4,0,56.793c0,2.265,1.155,3.421,3.4,3.421h38.7c2.337,0,3.464-1.134,3.465-3.493q0-6.406,0-12.811c0-1.224,0-1.19-1.221-1.233-.61-.022-.776.163-.773.771.025,4.424.014,8.849.012,13.274,0,1.255-.259,1.512-1.5,1.512h-38.566c-1.291,0-1.537-.245-1.537-1.543q0-17.137,0-34.274a5.341,5.341,0,0,1,.019-.593.914.914,0,0,1,.957-.9.9.9,0,0,1,.979.871,6.517,6.517,0,0,1,.026.791q0,14.4,0,28.793v.864h37.6v-9.513c-.232-.014-.425-.036-.618-.036-5.745,0-11.49-.008-17.236.016a1.438,1.438,0,0,0-.9.4c-2,1.958-3.964,3.943-5.941,5.919a10.1,10.1,0,0,1-1.278,1.236,1.425,1.425,0,0,1-1.121.223c-.275-.1-.428-.583-.587-.919a1.333,1.333,0,0,1-.015-.523q0-15.255,0-30.51c0-1.383.219-1.6,1.624-1.6H1370.7v-12.423h-5.927c0,1.132.056,2.231-.012,3.323a4.765,4.765,0,0,1-3.939,4.436,10.47,10.47,0,0,1-2.759.106,3.525,3.525,0,0,0-3.641,1.481.859.859,0,0,1-.142.138,3.351,3.351,0,0,1-4.757-.047c-.413-.4-.785-.838-1.221-1.205a1.413,1.413,0,0,0-.8-.328c-1.056-.037-2.113-.014-3.17-.015a4.966,4.966,0,0,1-5.29-5.224c-.009-.876,0-1.752,0-2.664Zm58.476,36.2c.019-.25.037-.381.037-.512,0-6.888-.007-13.776.016-20.664,0-.657-.331-.622-.78-.622q-22.546.008-45.092,0h-.7V-481.4c1.955-1.963,3.819-3.8,5.635-5.68a2.493,2.493,0,0,1,1.966-.825q18.981.033,37.961.015Zm-18.85-23.814h1.918a1.635,1.635,0,0,0,.054-.28c0-5.72.024-11.441-.015-17.161a2.883,2.883,0,0,0-3.036-2.9c-1.518-.012-3.036,0-4.554,0h-2.239v5.944h6.379c1.234,0,1.492.261,1.493,1.52q0,4.323,0,8.646Zm-29.72-16.351h-1.909c0,2.533-.085,5.036.034,7.531a2.76,2.76,0,0,0,2.8,2.337,13.008,13.008,0,0,0,2.241-.012,4.283,4.283,0,0,1,4.49,1.881,1.313,1.313,0,0,0,.185.188,1.4,1.4,0,0,0,2.152,0c.522-.5.988-1.074,1.551-1.526a2.261,2.261,0,0,1,1.207-.506c1.273-.065,2.551-.021,3.827-.024a2.98,2.98,0,0,0,3.234-3.189c.016-1.452,0-2.9,0-4.356v-2.31h-1.981c0,2.183,0,4.315,0,6.448,0,1.151-.287,1.427-1.454,1.427h-14.917c-1.19,0-1.458-.272-1.459-1.487C1343.013-523.757,1343.015-525.868,1343.015-528.051Zm27.717,53.777h-37.58v1.88h37.58Zm-7.96-55.83v-1.9H1341.09v1.9Zm-17.754,3.949h13.8v-1.878h-13.8Zm13.826,2.086h-13.8v1.875h13.8Z" transform="translate(-1327.165 534.029)" fill="#dc4029"/>
      <path id="Path_211" data-name="Path 211" d="M1538.011-352.433a4.929,4.929,0,0,1-4.942-4.941,4.96,4.96,0,0,1,4.945-4.952,4.955,4.955,0,0,1,4.941,4.956A4.926,4.926,0,0,1,1538.011-352.433Zm.01-1.981a2.939,2.939,0,0,0,2.952-2.983,2.972,2.972,0,0,0-2.938-2.947,2.979,2.979,0,0,0-2.986,2.966A2.941,2.941,0,0,0,1538.021-354.414Z" transform="translate(-1496.735 392.625)" fill="#dc4029"/>
      <path id="Path_212" data-name="Path 212" d="M1491.124-352.391a4.638,4.638,0,0,1-3.224-1.294,1.039,1.039,0,0,1-.2-1.515,1.015,1.015,0,0,1,1.516.05,2.711,2.711,0,0,0,2.235.753,1.105,1.105,0,0,0,1.083-.815c.133-.583-.329-.824-.75-1.012-.681-.3-1.387-.554-2.075-.842a2.537,2.537,0,0,1-1.8-2.737,2.851,2.851,0,0,1,2.391-2.4,4.462,4.462,0,0,1,3.54.888.99.99,0,0,1,.286,1.391.972.972,0,0,1-1.4.228,2.479,2.479,0,0,0-2.036-.532c-.305.085-.54.424-.807.647.214.235.386.551.65.687.583.3,1.216.5,1.824.758,1.671.7,2.429,1.888,2.141,3.348A3.269,3.269,0,0,1,1491.124-352.391Z" transform="translate(-1459.171 392.584)" fill="#dc4029"/>
      <path id="Path_213" data-name="Path 213" d="M1598.6-355.927c0,.831.011,1.555,0,2.277-.015.758-.356,1.158-.962,1.172-.634.014-1.008-.4-1.011-1.188q-.014-3.762,0-7.524c0-.825.35-1.167,1.174-1.175a19.3,19.3,0,0,1,2.5.065,3.146,3.146,0,0,1,2.765,3.371,3.2,3.2,0,0,1-3.112,3C1599.546-355.913,1599.132-355.927,1598.6-355.927Zm0-1.992c.535,0,.973.036,1.4-.008a1.209,1.209,0,0,0,1.076-1.336c-.08-.813-.744-1.177-1.984-1.131-.844.032-.425.656-.478,1.022A10.566,10.566,0,0,0,1598.606-357.919Z" transform="translate(-1549.073 392.664)" fill="#dc4029"/>
    </g>
    <g id="Group_241" data-name="Group 241" transform="translate(51.299 0.463)">
      <path id="Path_214" data-name="Path 214" d="M1644.667-519.747a6.9,6.9,0,0,1-2.015,4.881,6.829,6.829,0,0,1-4.856,2.026h-13.141a1.16,1.16,0,0,1-1.145-1.143,1.16,1.16,0,0,1,1.145-1.145h13.106a4.623,4.623,0,0,0,4.618-4.618,4.623,4.623,0,0,0-4.618-4.618h-15.53l3.448,2.839a1.157,1.157,0,0,1,.154,1.609l-.039.042a1.26,1.26,0,0,1-.858.356,1.223,1.223,0,0,1-.693-.208l-.053-.039-5.767-4.784a.592.592,0,0,1-.131-.116.724.724,0,0,1-.055-.051c-.012-.01-.023-.023-.035-.035a1.04,1.04,0,0,1-.171-.259,1.457,1.457,0,0,1-.083-.212,1.063,1.063,0,0,1,.079-.9.781.781,0,0,1,.161-.169l.136-.115,5.761-4.743a1.126,1.126,0,0,1,.835-.247,1.146,1.146,0,0,1,.771.4,1.135,1.135,0,0,1,.251.829,1.15,1.15,0,0,1-.4.778l-3.316,2.739h15.535A6.915,6.915,0,0,1,1644.667-519.747Z" transform="translate(-1617.88 531.405)" fill="#dc4029"/>
    </g>
  </g>
</svg>
