<svg xmlns="http://www.w3.org/2000/svg" width="78.445" height="78.455" viewBox="0 0 78.445 78.455">
  <g id="Group_228" data-name="Group 228" transform="translate(0)">
    <path id="Path_123" data-name="Path 123" d="M-985.391-100.462c0,.383,0,.646,0,.909.009,1.186.433,1.617,1.621,1.62,2.345,0,4.691-.005,7.036,0a3.814,3.814,0,0,1,3.99,3.8,3.816,3.816,0,0,1-4.011,3.784q-9.131.01-18.262-.008a.985.985,0,0,0-1.031.6,3.594,3.594,0,0,1-3.3,1.94,24.629,24.629,0,0,0-4.885.081,22.922,22.922,0,0,0-4.342,1.964c-2.343,1.076-4.7,2.119-7.041,3.2a11.846,11.846,0,0,1-5.051,1.086q-13.479-.007-26.958,0h-.979c-.017-.21-.04-.36-.04-.51,0-3.821-.074-7.644.02-11.463a14.438,14.438,0,0,1,6.966-12.316,1.15,1.15,0,0,0,.613-1.131c-.045-2.923-.049-5.846-.1-8.769a1.4,1.4,0,0,0-.327-.915c-2.334-2.21-2.8-4.771-1.474-7.792h-5.637c-.2-3.877-.393-7.638,2.929-10.5a14.007,14.007,0,0,1-5.488-10.161,13.469,13.469,0,0,1,1.931-8.092,13.933,13.933,0,0,1,14.466-6.565,13.817,13.817,0,0,1,8.148,4.773,13.975,13.975,0,0,1,3.272,8.878h17.716c.1-.557.186-1.123.3-1.683a13.955,13.955,0,0,1,14.331-10.917,13.914,13.914,0,0,1,13.014,12.082.872.872,0,0,0,.717.855,6.228,6.228,0,0,1,4.494,6.1q.016,16.365,0,32.729a6.3,6.3,0,0,1-6.411,6.415C-981.207-100.449-983.257-100.462-985.391-100.462Zm-38.207-42.988a14.007,14.007,0,0,1-5.882,8.989l1.045,2.373c.759,0,1.574,0,2.389,0a3.816,3.816,0,0,1,3.966,3.746,3.815,3.815,0,0,1-3.953,3.842c-.729.007-1.458,0-2.2,0l1.005,11.328h51.953v-1q0-12.449,0-24.9c0-.29.009-.581-.01-.869a3.439,3.439,0,0,0-2.563-3.176,14.053,14.053,0,0,1-12.977,12.262,13.492,13.492,0,0,1-8.41-2.2,13.941,13.941,0,0,1-6.368-10.4Zm-3.509,59.4c-3.478-2.981-3.648-7.213-5.059-10.972l2.422-.725c.1.3.185.549.26.8.568,1.862,1.088,3.74,1.709,5.584a7.851,7.851,0,0,0,8.317,5.312c2.508-.32,4.573-1.764,6.886-2.66l-1.5-3.337-7.485,3.391-1.028-2.292a8.649,8.649,0,0,0,1.223-.594A.863.863,0,0,0-1021-90.2c-.253-1.9-.443-3.827-.86-5.7a12.3,12.3,0,0,0-13.064-9.589,12.3,12.3,0,0,0-11.187,12.292c-.013,2.82,0,5.639,0,8.459,0,.226.029.453.044.677Zm51.824-26.529h-1.02q-25.251,0-50.5-.012c-1.463,0-2.9-.069-4.1,1.166v1.656c.277.072.53.137.782.2a14.192,14.192,0,0,1,6.682,3.865,2.216,2.216,0,0,0,1.783.724q20.943-.025,41.887-.013c.316,0,.633.01.948-.01a3.76,3.76,0,0,0,3.522-3.447C-975.221-107.786-975.283-109.131-975.283-110.583Zm-16.378-45.542a11.4,11.4,0,0,0-11.439,11.289,11.408,11.408,0,0,0,11.328,11.481,11.411,11.411,0,0,0,11.441-11.37A11.407,11.407,0,0,0-991.661-156.124Zm-34.186,9.884c-.058-.5-.1-1.19-.22-1.861a11.459,11.459,0,0,0-10.181-9.253,11.426,11.426,0,0,0-11.6,7.163,11.389,11.389,0,0,0,3.582,13.143,1.537,1.537,0,0,0,1.838.333,3,3,0,0,1,1.219-.294c2.129-.068,4.262-.166,6.389-.108a9.859,9.859,0,0,1,2.814.633,1.086,1.086,0,0,0,1.134-.122A11.505,11.505,0,0,0-1025.848-146.24Zm-4.973,21.744c-2.767,0-5.474,0-8.182,0a.517.517,0,0,0-.3.068c-1.792,1.377-2.432,3.418-.915,5.274.382.467.885.835,1.258,1.307a1.854,1.854,0,0,1,.414,1.02c.04,1.9.019,3.792.019,5.688v3.71l5-.772v-1.146h-2.416v-2.5c1.1,0,2.152.01,3.2,0a2.773,2.773,0,0,0,2.881-3.183C-1030.162-118.149-1030.491-121.264-1030.82-124.5ZM-995.627-92.9c.207.011.389.03.571.03q9.082,0,18.165,0c1.011,0,1.588-.446,1.613-1.225.026-.809-.575-1.3-1.614-1.3-2.369,0-4.739.009-7.108,0a3.792,3.792,0,0,1-3.922-3.945c0-.357,0-.713,0-1.05h-10.12c0,1.166-.01,2.27.009,3.374a.806.806,0,0,0,.206.549A6.73,6.73,0,0,1-995.627-92.9Zm-35.637-39.186a3.533,3.533,0,0,0-3.409-2.524q-2.568-.034-5.137,0a6.377,6.377,0,0,0-6.205,7.585c2.538,0,5.088.01,7.636-.019.188,0,.442-.242.547-.436.441-.808.822-1.648,1.251-2.462a3.763,3.763,0,0,1,3.511-2.141C-1032.474-132.093-1031.879-132.088-1031.264-132.088Zm12.758,41.26c1.743-.791,3.389-1.532,5.025-2.3a.557.557,0,0,0,.247-.422c.015-2.281.011-4.561.011-6.85h-7.675C-1019.123-97.433-1019.066-94.146-1018.506-90.829Zm7.854-4.024c2.764-3.225,6.322-3.314,10.03-2.983v-2.575h-10.03Zm7.53,4.51c1.264,0,2.443.011,3.621,0a1.323,1.323,0,0,0,1.446-1.617,3.557,3.557,0,0,0-2.776-3.251,27.629,27.629,0,0,0-4.153-.1,3.858,3.858,0,0,0-.812.215A4.573,4.573,0,0,1-1003.122-90.342Zm-32.03-36.8c.115.059.157.1.2.1,3,0,6,.016,8.993,0a1.254,1.254,0,0,0,1.345-1.249,1.267,1.267,0,0,0-1.4-1.268c-2.34-.013-4.681-.029-7.02.02a1.633,1.633,0,0,0-1.132.543A11.908,11.908,0,0,0-1035.152-127.139Zm24.882,39.36c1.277-.587,2.508-1.109,3.7-1.715a1.708,1.708,0,0,0,.8-2.231,1.73,1.73,0,0,0-2.191-1.055c-1.269.484-2.494,1.085-3.792,1.66Z" transform="translate(1051.181 159.939)" fill="#dc4029"/>
    <path id="Path_124" data-name="Path 124" d="M-888.68,12.064h-12.546V2.013h12.546Zm-2.511-2.532V4.552h-7.495v4.98Z" transform="translate(932.905 32.2)" fill="#dc4029"/>
    <path id="Path_125" data-name="Path 125" d="M-802.864,13.748V16.3h-26.488V13.748Z" transform="translate(876.215 22.944)" fill="#dc4029"/>
    <path id="Path_126" data-name="Path 126" d="M-829.464-7.395V-9.873h26.494v2.478Z" transform="translate(876.303 41.575)" fill="#dc4029"/>
    <path id="Path_127" data-name="Path 127" d="M-784.2,40.268h-21.461V37.779H-784.2Z" transform="translate(857.532 3.99)" fill="#dc4029"/>
    <path id="Path_128" data-name="Path 128" d="M-901.325-67.278v-2.479h12.578v2.479Z" transform="translate(932.983 88.808)" fill="#dc4029"/>
    <path id="Path_129" data-name="Path 129" d="M-901.255-46.2h12.572v2.582h-12.572Z" transform="translate(932.928 70.229)" fill="#dc4029"/>
    <path id="Path_130" data-name="Path 130" d="M-901.324-19.669v-2.479h12.579v2.479Z" transform="translate(932.982 51.257)" fill="#dc4029"/>
    <path id="Path_131" data-name="Path 131" d="M-826.881,40.22h-2.512v-2.5h2.512Z" transform="translate(876.247 4.038)" fill="#dc4029"/>
    <path id="Path_132" data-name="Path 132" d="M-763.555,88.36V85.923h2.451V88.36Z" transform="translate(824.318 -33.983)" fill="#dc4029"/>
    <path id="Path_133" data-name="Path 133" d="M-739.548,85.844h2.428v2.442h-2.428Z" transform="translate(805.382 -33.921)" fill="#dc4029"/>
    <path id="Path_134" data-name="Path 134" d="M-713.088,88.392h-2.419v-2.46h2.419Z" transform="translate(786.42 -33.99)" fill="#dc4029"/>
    <path id="Path_135" data-name="Path 135" d="M-781.89-115.2v-2.487h10.123v2.487Z" transform="translate(838.779 126.613)" fill="#dc4029"/>
    <path id="Path_136" data-name="Path 136" d="M-771.572-94.094v2.566H-781.66v-2.566Z" transform="translate(838.598 108.004)" fill="#dc4029"/>
    <path id="Path_137" data-name="Path 137" d="M-781.882-67.565v-2.474h10.117v2.474Z" transform="translate(838.773 89.031)" fill="#dc4029"/>
    <path id="Path_138" data-name="Path 138" d="M-805.448-115.235v-2.514h2.5v2.514Z" transform="translate(857.361 126.662)" fill="#dc4029"/>
    <path id="Path_139" data-name="Path 139" d="M-805.493-91.469v-2.565h2.5v2.565Z" transform="translate(857.396 107.957)" fill="#dc4029"/>
    <path id="Path_140" data-name="Path 140" d="M-805.4-70.18h2.5v2.5h-2.5Z" transform="translate(857.324 89.142)" fill="#dc4029"/>
    <path id="Path_141" data-name="Path 141" d="M-1020.438-123.833c-.4-.808-.743-1.483-1.081-2.159-.729-1.459-1.475-2.91-2.177-4.382a.831.831,0,0,0-.911-.547c-.759.035-1.521.01-2.335.01v-2.528c1.425,0,2.84-.018,4.253.022.179.005.4.283.514.486.422.78.807,1.581,1.27,2.5l4-11.98c.162.4.265.627.343.859.951,2.843,1.924,5.68,2.828,8.538a1.009,1.009,0,0,0,1.218.851c1.044-.066,2.095-.017,3.185-.017v2.469h-5.938l-1.516-4.492-.174-.033Z" transform="translate(1032.063 146.11)" fill="#dc4029"/>
  </g>
</svg>
