<svg id="Group_277" data-name="Group 277" xmlns="http://www.w3.org/2000/svg" width="83.129" height="72.046" viewBox="0 0 83.129 72.046">
  <path id="Path_99" data-name="Path 99" d="M-849.948-1042.53v4.562a.972.972,0,0,1-.287.693,3.727,3.727,0,0,0-1.1,2.652v1.791a1.385,1.385,0,0,0,1.385,1.386h16.626a1.385,1.385,0,0,0,1.385-1.386v-1.791a3.729,3.729,0,0,0-1.1-2.652.971.971,0,0,1-.287-.693v-4.562a8.314,8.314,0,0,0-4.061-7.139l1.249-4.994a1.387,1.387,0,0,0-.253-1.188,1.385,1.385,0,0,0-1.092-.533h-8.313a1.385,1.385,0,0,0-1.092.533,1.387,1.387,0,0,0-.252,1.188l1.248,4.994a8.317,8.317,0,0,0-4.061,7.139Zm5.931-11.084h4.764l-.734,2.936a8.33,8.33,0,0,0-3.3,0Zm-3.159,11.084a5.542,5.542,0,0,1,2.771-4.8,5.541,5.541,0,0,1,5.542,0,5.543,5.543,0,0,1,2.77,4.8v4.156h-2.77v2.771h3.611c.081.1.167.2.258.287a.975.975,0,0,1,.287.693v.406h-13.855v-.406a.975.975,0,0,1,.287-.693,3.725,3.725,0,0,0,1.1-2.652Z" transform="translate(908.14 1060.54)" fill="#dc4029"/>
  <path id="Path_100" data-name="Path 100" d="M-808.79-994.414a2.771,2.771,0,0,1-2.771,2.771,2.771,2.771,0,0,1-2.771-2.771,2.771,2.771,0,0,1,2.771-2.771,2.771,2.771,0,0,1,2.771,2.771" transform="translate(878.067 1012.425)" fill="#dc4029"/>
  <path id="Path_101" data-name="Path 101" d="M-987.777-1078.578a4.164,4.164,0,0,0-2.938,1.219,4.16,4.16,0,0,0-1.219,2.938v22.167a4.161,4.161,0,0,0,1.219,2.938,4.163,4.163,0,0,0,2.938,1.218h13.855a4.164,4.164,0,0,0,2.938-1.218,4.163,4.163,0,0,0,1.218-2.938v-22.167a4.163,4.163,0,0,0-1.218-2.938,4.164,4.164,0,0,0-2.938-1.219Zm15.241,4.156v22.167a1.386,1.386,0,0,1-1.385,1.385h-13.855a1.387,1.387,0,0,1-1.386-1.385v-22.167a1.387,1.387,0,0,1,1.386-1.385h13.855a1.386,1.386,0,0,1,1.385,1.385Z" transform="translate(1022.415 1078.578)" fill="#dc4029"/>
  <path id="Path_102" data-name="Path 102" d="M-962.334-1041.578h11.084v2.771h-11.084Z" transform="translate(998.357 1048.506)" fill="#dc4029"/>
  <path id="Path_103" data-name="Path 103" d="M-962.334-1011.978h2.771v2.771h-2.771Z" transform="translate(998.357 1024.448)" fill="#dc4029"/>
  <path id="Path_104" data-name="Path 104" d="M-940.134-1011.978h2.771v2.771h-2.771Z" transform="translate(980.314 1024.448)" fill="#dc4029"/>
  <path id="Path_105" data-name="Path 105" d="M-917.934-1011.978h2.771v2.771h-2.771Z" transform="translate(962.271 1024.448)" fill="#dc4029"/>
  <path id="Path_106" data-name="Path 106" d="M-962.334-989.778h2.771v2.771h-2.771Z" transform="translate(998.357 1006.404)" fill="#dc4029"/>
  <path id="Path_107" data-name="Path 107" d="M-940.134-989.778h2.771v2.771h-2.771Z" transform="translate(980.314 1006.404)" fill="#dc4029"/>
  <path id="Path_108" data-name="Path 108" d="M-917.934-989.778h2.771v2.771h-2.771Z" transform="translate(962.271 1006.404)" fill="#dc4029"/>
  <path id="Path_109" data-name="Path 109" d="M-962.334-967.578h2.771v2.771h-2.771Z" transform="translate(998.357 988.361)" fill="#dc4029"/>
  <path id="Path_110" data-name="Path 110" d="M-940.134-967.578h2.771v2.771h-2.771Z" transform="translate(980.314 988.361)" fill="#dc4029"/>
  <path id="Path_111" data-name="Path 111" d="M-917.934-967.578h2.771v2.771h-2.771Z" transform="translate(962.271 988.361)" fill="#dc4029"/>
  <path id="Path_112" data-name="Path 112" d="M-1075.18-994.414a2.771,2.771,0,0,1-2.77,2.771,2.771,2.771,0,0,1-2.771-2.771,2.771,2.771,0,0,1,2.771-2.771,2.771,2.771,0,0,1,2.77,2.771" transform="translate(1094.579 1012.425)" fill="#dc4029"/>
  <path id="Path_113" data-name="Path 113" d="M-1102.962-1029.114v-2.77h-2.888a8.277,8.277,0,0,0-1.424-3.427l2.045-2.046-1.959-1.959-2.046,2.046h0a8.265,8.265,0,0,0-3.427-1.423v-2.888h-2.771v2.889h0a8.265,8.265,0,0,0-3.427,1.423l-2.046-2.045-1.959,1.959,2.046,2.045a8.273,8.273,0,0,0-1.424,3.427h-2.888v2.771h2.888a8.266,8.266,0,0,0,1.424,3.427l-2.046,2.046,1.959,1.959,2.046-2.046a8.268,8.268,0,0,0,3.427,1.423v2.889h2.771v-2.889a8.27,8.27,0,0,0,3.427-1.423l2.046,2.046,1.959-1.959-2.046-2.046a8.27,8.27,0,0,0,1.424-3.427Zm-11.084,4.156h0a5.541,5.541,0,0,1-3.919-1.623,5.542,5.542,0,0,1-1.624-3.919,5.543,5.543,0,0,1,1.624-3.919,5.54,5.54,0,0,1,3.919-1.623,5.54,5.54,0,0,1,3.918,1.623,5.541,5.541,0,0,1,1.624,3.919,5.549,5.549,0,0,1-1.625,3.917,5.549,5.549,0,0,1-3.917,1.624Z" transform="translate(1130.672 1048.51)" fill="#dc4029"/>
  <path id="Path_114" data-name="Path 114" d="M-1147.059-892.623a11.129,11.129,0,0,0,6.558,4.176,11.128,11.128,0,0,0,7.691-1.137l3.017-1.676V-875.6a1.386,1.386,0,0,0,1.386,1.386h30.48a1.385,1.385,0,0,0,1.385-1.386V-891.26l3.017,1.676h0a11.128,11.128,0,0,0,7.691,1.137,11.129,11.129,0,0,0,6.558-4.176l6.487-9.718a8.314,8.314,0,0,0,1.185-4.277v-5.009a4.164,4.164,0,0,0-1.218-2.938,4.165,4.165,0,0,0-2.938-1.218h-1.288a4.146,4.146,0,0,0-3.458,1.851l-1.542,2.313c-.072-.005-.146-.008-.219-.008a3.193,3.193,0,0,0-2.255.935,3.193,3.193,0,0,0-.936,2.255v5.934l-1.791,1.791a1.388,1.388,0,0,1-1.959,0l-6.468-6.467a12.428,12.428,0,0,0-3.241-2.336l-.508-.254h0a30.725,30.725,0,0,0-13.744-3.244,30.718,30.718,0,0,0-13.743,3.244l-.508.254a12.459,12.459,0,0,0-3.241,2.335l-6.467,6.468a1.388,1.388,0,0,1-1.959,0l-1.791-1.791v-5.934a3.194,3.194,0,0,0-.935-2.255,3.194,3.194,0,0,0-2.255-.935c-.073,0-.146,0-.219.008l-1.542-2.313a4.147,4.147,0,0,0-3.458-1.851h-1.288a4.163,4.163,0,0,0-2.938,1.218,4.161,4.161,0,0,0-1.219,2.938v5.009a8.321,8.321,0,0,0,1.184,4.277Zm64.793-16.232a.416.416,0,0,1,.349.186l2,3v2.351h2.771v-2.771a1.388,1.388,0,0,0-.233-.768l-2.235-3.353-.024-.034,1.436-2.155a1.383,1.383,0,0,1,1.153-.617h1.288a1.386,1.386,0,0,1,1.385,1.385v5.009a5.542,5.542,0,0,1-.789,2.851l-2.457,4.094-5.067-3.04v-5.724a.42.42,0,0,1,.42-.419Zm-32.285,5.542v5.959l-6.8-11.656a28.175,28.175,0,0,1,6.8-1.194v4.119h2.771V-910.2a28.174,28.174,0,0,1,6.8,1.194l-6.8,11.656v-5.959Zm-20.615,4.562,6.467-6.468a9.685,9.685,0,0,1,2.521-1.816l.508-.254q.821-.41,1.67-.764l9.638,16.521h0a1.386,1.386,0,0,0,1.2.688,1.387,1.387,0,0,0,1.2-.687l9.638-16.521q.847.355,1.67.764l.508.254h0a9.657,9.657,0,0,1,2.52,1.817l6.467,6.467h0a4.162,4.162,0,0,0,2.939,1.216,4.163,4.163,0,0,0,2.939-1.216l1.432-1.432,4.682,2.809-2.316,3.089a8.346,8.346,0,0,1-4.919,3.132,8.347,8.347,0,0,1-5.769-.853l-5.076-2.82h0a1.385,1.385,0,0,0-1.376.017,1.385,1.385,0,0,0-.682,1.194v16.626h-27.711v-16.626a1.384,1.384,0,0,0-.683-1.194,1.383,1.383,0,0,0-1.375-.018l-5.076,2.82h0a8.343,8.343,0,0,1-5.769.853,8.343,8.343,0,0,1-4.919-3.132l-2.316-3.089,4.682-2.809,1.432,1.432a4.163,4.163,0,0,0,2.939,1.216,4.162,4.162,0,0,0,2.939-1.216Zm-16.794-12.875a1.387,1.387,0,0,1,1.386-1.385h1.288a1.383,1.383,0,0,1,1.152.617l1.436,2.155c-.008.012-.017.023-.024.034l-2.235,3.353a1.385,1.385,0,0,0-.232.768v2.771h2.771v-2.351l2-3h0a.421.421,0,0,1,.471-.169.419.419,0,0,1,.3.4v5.724l-5.066,3.039-2.457-4.094a5.546,5.546,0,0,1-.79-2.851Z" transform="translate(1154.731 946.264)" fill="#dc4029"/>
</svg>
