<svg id="Group_274" data-name="Group 274" xmlns="http://www.w3.org/2000/svg" width="60.644" height="72.869" viewBox="0 0 60.644 72.869">
  <path id="Path_153" data-name="Path 153" d="M-1965.224-321.888h2.2c1.458,0,2.916-.011,4.374.005.972.011,1.534.473,1.554,1.225.021.774-.586,1.3-1.576,1.3q-7.015.013-14.03,0-21.458,0-42.915,0a6.545,6.545,0,0,1-.988-.032,1.269,1.269,0,0,1-1.132-1.3,1.215,1.215,0,0,1,1.257-1.167c1.925-.026,3.851-.012,5.777-.014h.874l.171-.275a7.307,7.307,0,0,1-.784-.554c-1.5-1.377-3.015-2.738-4.471-4.159a6.853,6.853,0,0,1-1.974-7.019c1.318-5.047,2.691-10.08,4.041-15.119.042-.159.105-.314.134-.476.884-5.037,4.24-7.723,8.789-9.32a35.289,35.289,0,0,1,9.556-1.629,103.252,103.252,0,0,1,17.306.347,21.58,21.58,0,0,1,9.823,3.325,9.384,9.384,0,0,1,4.109,5.483c1.209,4.481,2.4,8.967,3.615,13.445.389,1.43.932,2.822,1.265,4.264a6.9,6.9,0,0,1-1.965,6.731c-1.43,1.448-2.916,2.84-4.375,4.26C-1964.759-322.4-1964.917-322.217-1965.224-321.888Zm-41.552-21.789c.1,1.3.183,2.557.287,3.807.472,5.64.971,11.279,1.4,16.922.065.855.312,1.08,1.158,1.078q16.494-.043,32.989-.019c.165,0,.331-.014.495,0,.451.043.643-.151.665-.607.04-.823.118-1.644.187-2.466q.625-7.434,1.251-14.867c.106-1.272.191-2.545.289-3.85Zm14.874-2.566c.341-2.154.676-4.239.994-6.327a1.126,1.126,0,0,0-.1-.556c-.594-1.478-1.186-2.957-1.818-4.42a.78.78,0,0,0-.587-.4c-3.686.172-7.352.459-10.81,1.936-3.053,1.3-5.312,3.282-5.939,6.724-.093.512-.263,1.009-.4,1.513q-1.945,7.239-3.887,14.479a4.471,4.471,0,0,0,1.328,4.665c1.616,1.534,3.263,3.034,4.9,4.546a6.873,6.873,0,0,0,.556.4c-.166-2.034-.318-3.92-.475-5.805-.414-4.959-.842-9.918-1.238-14.878-.118-1.482.291-1.883,1.763-1.884q7.386,0,14.772,0Zm8.978.014h15.076c2.344,0,2.567.284,2.356,2.659-.493,5.56-.955,11.122-1.425,16.683-.086,1.022-.149,2.046-.223,3.069a66.8,66.8,0,0,0,5.486-5.192,4.247,4.247,0,0,0,.864-4.325c-.23-.762-.508-1.511-.716-2.279q-1.991-7.356-3.953-14.719a7.173,7.173,0,0,0-3.342-4.424,21.261,21.261,0,0,0-3.087-1.545c-3.058-1.232-6.308-1.415-9.548-1.6a.772.772,0,0,0-.582.395c-.62,1.437-1.2,2.89-1.782,4.345a1.454,1.454,0,0,0-.106.715C-1983.6-350.411-1983.266-348.377-1982.924-346.228Zm-2.571-.056c-.185-1.192-.327-2.334-.545-3.462-.378-1.957-.682-3.875.435-5.738a19.235,19.235,0,0,0,1.072-2.567h-5.764c.526,1.281.99,2.5,1.527,3.691a4.256,4.256,0,0,1,.289,2.637c-.328,1.794-.566,3.6-.846,5.438Z" transform="translate(2017.736 392.221)" fill="#dc4029"/>
  <path id="Path_154" data-name="Path 154" d="M-1931.816-503.868c6.786-.2,12.749,3.931,14.354,10.1a15.186,15.186,0,0,1-.9,9.835,17.657,17.657,0,0,1-5.4,7.264,11.468,11.468,0,0,1-14.689.213,17.194,17.194,0,0,1-7.018-13.673,12.868,12.868,0,0,1,9.24-12.8C-1934.8-503.376-1933.29-503.564-1931.816-503.868Zm3.839,10.937c-4.267,4.273-9.3,5.191-15,3.527a15.686,15.686,0,0,0,6.146,11.023,8.894,8.894,0,0,0,10.962.128,14.851,14.851,0,0,0,5.824-8.632c.321-1.226.421-2.51.644-3.911C-1922.678-490.333-1925.5-490.789-1927.977-492.932Zm-14.788.922a12.6,12.6,0,0,0,8.99.064,12.939,12.939,0,0,0,4.609-3.388c.78-.851,1.411-.852,2.246-.061.279.265.556.534.855.774a7.2,7.2,0,0,0,6.036,1.319c-.711-3.877-5.315-8.532-12.66-7.857C-1937.946-500.676-1942.881-496.284-1942.765-492.01Z" transform="translate(1961.412 503.875)" fill="#dc4029"/>
  <path id="Path_155" data-name="Path 155" d="M-1892.513-216.685c-.657,0-1.314.012-1.971,0a1.3,1.3,0,0,1-1.451-1.239,1.277,1.277,0,0,1,1.411-1.262q2.053-.026,4.106,0a1.273,1.273,0,0,1,1.41,1.264,1.308,1.308,0,0,1-1.453,1.237C-1891.144-216.673-1891.829-216.685-1892.513-216.685Z" transform="translate(1922.794 281.976)" fill="#dc4029"/>
  <path id="Path_156" data-name="Path 156" d="M-1886.054-242.33a1.64,1.64,0,0,1,1.62,1.709,1.691,1.691,0,0,1-1.658,1.61,1.7,1.7,0,0,1-1.662-1.691A1.637,1.637,0,0,1-1886.054-242.33Z" transform="translate(1916.417 300.004)" fill="#dc4029"/>
</svg>
