<svg xmlns="http://www.w3.org/2000/svg" width="70.56" height="81.943" viewBox="0 0 70.56 81.943">
  <g id="Group_272" data-name="Group 272" transform="translate(-936 -1378.147)">
    <g id="Group_234" data-name="Group 234" transform="translate(936 1378.147)">
      <path id="Path_187" data-name="Path 187" d="M-1575.887-1079.526h-4.81a2.152,2.152,0,0,1-.8-1.948q.016-38.085,0-76.17c0-.266-.009-.534.008-.8a3.208,3.208,0,0,1,2.215-2.857,3.193,3.193,0,0,1,4.186,3.173q.019,9.361,0,18.723v.929h3.848v-.933q0-8.2,0-16.4c0-1.411.392-1.8,1.807-1.8h19.481c1.41,0,1.8.391,1.8,1.81q0,8.241,0,16.482v.845h3.849v-.934q0-8.2,0-16.4c0-1.413.39-1.8,1.807-1.8h19.481c1.408,0,1.8.394,1.8,1.811q0,8.241,0,16.482v.843h3.846v-1.016q0-9.281,0-18.563a3.2,3.2,0,0,1,2.229-3.246c2.209-.7,4.181.91,4.181,3.429q0,38.285.013,76.57a1.969,1.969,0,0,1-.812,1.779h-4.81a1.857,1.857,0,0,1-.815-1.85c.052-.651.011-1.309.011-1.957h-57.718c0,.687-.041,1.325.01,1.956A1.863,1.863,0,0,1-1575.887-1079.526Zm7.272-47.343v12.715h44.785v-12.687h-17.9c0,.785.007,1.5,0,2.223-.014,1.082-.477,1.543-1.581,1.549q-2.886.014-5.772,0c-1.181,0-1.617-.46-1.624-1.667,0-.709,0-1.418,0-2.134Zm-6.425,19.194v17.83h3.806v-.926q0-5.08,0-10.16c0-1.216.426-1.644,1.63-1.645q11.182,0,22.364,0c1.253,0,1.658.414,1.66,1.692q0,5.08,0,10.16v.875h3.844v-.933q0-6.92,0-13.84c0-1.424.375-1.8,1.8-1.8q8.457,0,16.913,0c1.434,0,1.814.374,1.814,1.784q0,6.96,0,13.92v.87h3.8v-17.826Zm24.266-30.782v-16.555h-5.07c0,.782.007,1.522,0,2.262-.012,1.067-.454,1.53-1.494,1.538q-2.364.018-4.728,0c-1-.008-1.454-.472-1.47-1.479-.012-.765,0-1.53,0-2.307h-5.089v16.541Zm14.171-16.554h-5.075v16.529h17.854v-16.514h-5.082c0,.8.009,1.548,0,2.293-.016,1.011-.467,1.482-1.46,1.491q-2.4.021-4.809,0a1.278,1.278,0,0,1-1.422-1.443C-1536.613-1153.423-1536.6-1154.192-1536.6-1155.01Zm-34.634,40.855v-.9q0-6.32,0-12.64c0-1.382.382-1.773,1.742-1.773q23.284,0,46.569,0c1.313,0,1.714.4,1.715,1.72q0,6.36,0,12.719v.848h3.791v-17.774h-57.607v17.8Zm47.41,24.324V-1103.8h-3.8c0,.808.01,1.552,0,2.3a1.308,1.308,0,0,1-1.474,1.482q-2.363.021-4.726,0a1.309,1.309,0,0,1-1.491-1.465c-.014-.766,0-1.532,0-2.329h-3.785v13.982Zm-44.816-.017h20.451v-10.108h-6.369c0,.8.009,1.547,0,2.291a1.308,1.308,0,0,1-1.471,1.487q-2.365.021-4.73,0a1.309,1.309,0,0,1-1.49-1.469c-.014-.766,0-1.532,0-2.313h-6.386Zm-9,7.744v-.853q0-37.361,0-74.722a1.434,1.434,0,0,0-.03-.63c-.126-.228-.391-.56-.559-.54a1.165,1.165,0,0,0-.661.532c-.1.149-.032.414-.032.627q0,37.361.01,74.721v.864Zm64.132-.019v-.9q0-37.285,0-74.57c0-.528.185-1.286-.662-1.272-.777.013-.613.732-.613,1.241q-.006,37.325,0,74.65v.846Zm-61.528-52.5h57.616v-1.19h-57.616Zm57.66,23.137h-57.651v1.156h57.651Zm0,24.324h-57.651v1.156h57.651Zm-30.731-38.521h3.775v-1.175h-3.775Zm-10.322-29.3h-2.5v1.173h2.5Zm26.923,1.186v-1.2h-2.466v1.2Zm-1.178,49.974v1.214h2.458v-1.214Zm-26.971,5.031h2.494v-1.168h-2.494Z" transform="translate(1581.498 1161.469)" fill="#dc4029"/>
    </g>
  </g>
</svg>
