<svg xmlns="http://www.w3.org/2000/svg" width="71.038" height="71.039" viewBox="0 0 71.038 71.039">
  <g id="Group_227" data-name="Group 227" transform="translate(0 0)">
    <path id="Path_115" data-name="Path 115" d="M-1538.027-652.394c0-2.606,0-5.108,0-7.61a5.743,5.743,0,0,1,6.128-6.128q12.2,0,24.4,0a5.734,5.734,0,0,1,6.109,6.076q0,23.683,0,47.366a5.741,5.741,0,0,1-6.094,6.093q-12.235,0-24.47,0a5.737,5.737,0,0,1-6.071-6.043c0-4.054,0-8.107,0-12.218h-2.29v.742c0,2.7,0,5.39,0,8.085a4.585,4.585,0,0,1-4.838,4.853q-13.273.007-26.545,0h-.62v-32.029h9.474c-.168-.347-.278-.6-.405-.835-2.528-4.779-5.075-9.549-7.584-14.339a13.11,13.11,0,0,1,2.046-15.372,11.964,11.964,0,0,1,12.949-3.162,12.051,12.051,0,0,1,8.527,10.327,13.3,13.3,0,0,1-1.514,8.433c-2.51,4.681-4.978,9.385-7.463,14.08-.129.244-.249.494-.405.805h4.93c0-1.406,0-2.782,0-4.158a4.6,4.6,0,0,1,4.938-4.968q3.971,0,7.942,0Zm4.58-.034c0-.717-.005-1.4,0-2.088a2.3,2.3,0,0,1,2.463-2.455q11.27-.007,22.54,0a2.283,2.283,0,0,1,2.471,2.447q.007,18.174,0,36.349a2.276,2.276,0,0,1-2.43,2.416q-11.305.009-22.611,0a2.276,2.276,0,0,1-2.43-2.415c-.011-1.98,0-3.959,0-5.939,0-.253,0-.505,0-.746h-2.29c0,4.062,0,8.068,0,12.074,0,2.535,1.355,3.9,3.874,3.9h24.185c2.683,0,4-1.313,4-3.99q0-23.506,0-47.011c0-.191,0-.382,0-.572a3.4,3.4,0,0,0-3.386-3.374q-12.629-.025-25.259,0a3.385,3.385,0,0,0-3.4,3.423c-.022,2.528-.007,5.056,0,7.585a2.856,2.856,0,0,0,.055.4Zm25.153,20.617h-6.834c0-3.939.008-7.8-.011-11.662,0-.439.263-.5.552-.6,1.929-.686,3.861-1.365,5.784-2.069.208-.076.512-.293.518-.454.044-1.157.024-2.315.024-3.51-1.43,0-2.764-.033-4.1.014a6.385,6.385,0,0,0-1.874.318c-5.253,1.854-10.493,3.742-15.738,5.617-.371.133-.748.247-1.209.4v-6.3h-6.849v8.815l-11.421,3.432v5.617l11.453-3.425v8.372h6.839v-.8c0-3.172.011-6.343-.012-9.515a.71.71,0,0,1,.573-.805c2.295-.8,4.578-1.623,6.865-2.439,1.319-.47,2.638-.937,4.052-1.44v15h11.386Zm-61.789-32.95a10.738,10.738,0,0,0,1.349,5.484c1,1.843,1.965,3.7,2.945,5.553q2.589,4.893,5.177,9.787c.24.455.546.86,1.107.585a1.7,1.7,0,0,0,.621-.735c2.639-4.961,5.24-9.942,7.907-14.888a12.336,12.336,0,0,0,1.5-6.45,10.376,10.376,0,0,0-9.923-9.862A10.306,10.306,0,0,0-1570.083-664.762Zm11.431,39.82h6.851v-4.564h-6.86v-11.4h-4.563v11.439h-6.825v4.564h6.86v11.4h4.537Zm27.546.056v6.782h22.808v-6.782Zm-25.211,11.412c3.907,0,7.744.023,11.581-.014a2.24,2.24,0,0,0,2.126-2.275,2.286,2.286,0,0,0-2.206-2.277c-.81-.031-1.622,0-2.432-.012a4.478,4.478,0,0,1-2.886-1.083,4.717,4.717,0,0,1-1.658-3.453h-4.525Zm15.967-36.631c-2.252,0-4.42,0-6.589,0a2.317,2.317,0,0,0-2.537,2.523q-.008,3.361,0,6.722c0,.2.027.4.046.654l9.079-2.726Zm11.483,22.849h6.82v-11.713c-2.212.789-4.362,1.548-6.5,2.334a.609.609,0,0,0-.3.464C-1528.872-633.218-1528.867-630.265-1528.867-627.255Zm-2.263-25.194h22.833v-2.192h-22.833Zm-38.922,20.614h4.492v-9.072h-4.492Zm13.756-9.077v9.07h4.493v-9.07Zm-13.739,18.319v9.07h4.492v-9.07Zm61.755-21.291c-1.372.487-2.638.962-3.923,1.379a.789.789,0,0,0-.649.906c.031,2.288.013,4.577.015,6.866,0,.206.026.411.038.6h4.519Zm-32.063,11.361-9.108,2.732v3.09c3-1.026,6.1-.2,9.108-.583Zm-2.3,12.8v-5.19c-1.457,0-2.878,0-4.3,0a2.313,2.313,0,0,0-2.531,2.3,2.337,2.337,0,0,0,2.561,2.278C-1545.476-620.32-1544.01-620.523-1542.644-619.726Zm13.8-27.266,8.358-2.991-.028-.078h-8.33Z" transform="translate(1572.426 677.636)" fill="#dc4029"/>
    <path id="Path_116" data-name="Path 116" d="M-1295.6-593.263v2.2h-6.779v-2.2Z" transform="translate(1354.014 609.394)" fill="#dc4029"/>
    <path id="Path_117" data-name="Path 117" d="M-1314.589-339.53v-2.19h6.8v2.19Z" transform="translate(1363.886 405.945)" fill="#dc4029"/>
    <path id="Path_118" data-name="Path 118" d="M-1326.439-593.358h2.2v2.215h-2.2Z" transform="translate(1373.47 609.471)" fill="#dc4029"/>
    <path id="Path_119" data-name="Path 119" d="M-1540.193-637.37a8.04,8.04,0,0,1-8-8.026,8.039,8.039,0,0,1,8.025-8,8.034,8.034,0,0,1,8,8.025A8.037,8.037,0,0,1-1540.193-637.37Zm5.735-7.982a5.735,5.735,0,0,0-5.709-5.753,5.738,5.738,0,0,0-5.735,5.655,5.741,5.741,0,0,0,5.673,5.79A5.74,5.74,0,0,0-1534.458-645.351Z" transform="translate(1552.825 658.029)" fill="#dc4029"/>
    <path id="Path_120" data-name="Path 120" d="M-1521.8-557.392v2.2h-2.213v-2.2Z" transform="translate(1533.272 580.382)" fill="#dc4029"/>
    <path id="Path_121" data-name="Path 121" d="M-1497.891-557.314v2.2h-2.227v-2.2Z" transform="translate(1513.943 580.319)" fill="#dc4029"/>
    <path id="Path_122" data-name="Path 122" d="M-1525.025-621.3l-2.915-2.914,1.581-1.547,1.268,1.482,3.815-3.89,1.469,1.657Z" transform="translate(1536.445 637.628)" fill="#dc4029"/>
  </g>
</svg>
