<svg xmlns="http://www.w3.org/2000/svg" width="69.012" height="69.024" viewBox="0 0 69.012 69.024">
  <g id="Group_278" data-name="Group 278" transform="translate(0 0)">
    <path id="Path_188" data-name="Path 188" d="M-1989.108-795.112q-14.671,0-29.342,0a3.965,3.965,0,0,1-.9-.056,1.016,1.016,0,0,1-.7-1.559,7.067,7.067,0,0,1,.462-.7q3.337-4.767,6.682-9.528a2.421,2.421,0,0,0,.466-1.482q-.019-16.936-.007-33.872a6.593,6.593,0,0,1,.062-1.11,3.294,3.294,0,0,1,3.307-2.9c.209-.009.418,0,.627,0q19.375,0,38.751,0a6.527,6.527,0,0,1,1.041.052,3.3,3.3,0,0,1,2.95,3.334c.011.255,0,.511,0,.767q0,16.832-.01,33.663a2.622,2.622,0,0,0,.511,1.607c2.294,3.243,4.564,6.5,6.842,9.756a3.844,3.844,0,0,1,.23.348,1.054,1.054,0,0,1-.807,1.654,5.556,5.556,0,0,1-.835.023Zm21.278-13.329v-.845q0-16.693.013-33.387a1.338,1.338,0,0,0-1.5-1.526q-19.76.028-39.521.014c-1.094,0-1.466.372-1.467,1.465q0,16.763,0,33.526c0,.244.037.488.058.753Zm6.785,11.157c-.211-.329-.338-.544-.481-.748-1.743-2.493-3.506-4.973-5.22-7.487a1.57,1.57,0,0,0-1.484-.762q-20.834.03-41.669.015a3.346,3.346,0,0,1-.348,0,.926.926,0,0,0-.931.461c-1.867,2.69-3.752,5.368-5.626,8.053a2.851,2.851,0,0,0-.2.469Z" transform="translate(2023.563 864.133)" fill="#dc4029"/>
    <path id="Path_189" data-name="Path 189" d="M-1867.79-937.59a4.356,4.356,0,0,1-4.391,4.394,4.267,4.267,0,0,1-4.395-4.367,4.26,4.26,0,0,1,4.366-4.392A4.354,4.354,0,0,1-1867.79-937.59Zm-4.431-2.261a2.252,2.252,0,0,0-2.251,2.32,2.236,2.236,0,0,0,2.267,2.233,2.246,2.246,0,0,0,2.286-2.285A2.239,2.239,0,0,0-1872.221-939.852Z" transform="translate(1906.688 941.955)" fill="#dc4029"/>
    <path id="Path_190" data-name="Path 190" d="M-1710.581-866.645a4.381,4.381,0,0,1,4.406,4.361,4.423,4.423,0,0,1-4.407,4.374,4.353,4.353,0,0,1-4.393-4.376A4.325,4.325,0,0,1-1710.581-866.645Zm2.278,4.385a2.3,2.3,0,0,0-2.269-2.337,2.3,2.3,0,0,0-2.285,2.318,2.3,2.3,0,0,0,2.3,2.3A2.307,2.307,0,0,0-1708.3-862.26Z" transform="translate(1775.186 880.672)" fill="#dc4029"/>
    <path id="Path_191" data-name="Path 191" d="M-2033.875-858.009a4.266,4.266,0,0,1-4.375-4.37,4.317,4.317,0,0,1,4.382-4.374,4.373,4.373,0,0,1,4.389,4.383A4.336,4.336,0,0,1-2033.875-858.009Zm-2.274-4.35a2.294,2.294,0,0,0,2.309,2.3,2.3,2.3,0,0,0,2.244-2.359,2.3,2.3,0,0,0-2.274-2.261A2.309,2.309,0,0,0-2036.149-862.36Z" transform="translate(2038.25 880.76)" fill="#dc4029"/>
    <path id="Path_192" data-name="Path 192" d="M-1975.457-918.533c-6.406,1.066-12.368,3.081-17.5,7.32l-1.329-1.5c.168-.167.3-.318.452-.445a30.417,30.417,0,0,1,7.95-4.666,44.482,44.482,0,0,1,9.349-2.637c.137-.024.277-.027.415-.04.33-.03.532.088.566.447s.1.734.14,1.1A2.3,2.3,0,0,1-1975.457-918.533Z" transform="translate(2002.47 924.502)" fill="#dc4029"/>
    <path id="Path_193" data-name="Path 193" d="M-1795.432-913.5l-1.322,1.529a3.72,3.72,0,0,1-.436-.258,31.438,31.438,0,0,0-11.535-5.674c-1.673-.46-3.389-.765-5.089-1.125-.595-.126-.612-.119-.524-.71.067-.453.141-.906.225-1.447C-1807.255-920.109-1800.933-917.959-1795.432-913.5Z" transform="translate(1856.073 925.052)" fill="#dc4029"/>
    <path id="Path_194" data-name="Path 194" d="M-2024.465-802.93l2.009-.464a15.369,15.369,0,0,0,5.219,7.809l-1.338,1.583A17.042,17.042,0,0,1-2024.465-802.93Z" transform="translate(2027.032 829.201)" fill="#dc4029"/>
    <path id="Path_195" data-name="Path 195" d="M-1712.424-803.512c.08,2.22-3.2,7.4-5.612,8.881l-1.3-1.5a15.092,15.092,0,0,0,5.01-7.726A5.972,5.972,0,0,1-1712.424-803.512Z" transform="translate(1778.737 829.582)" fill="#dc4029"/>
    <path id="Path_196" data-name="Path 196" d="M-1907.879-814.794a5.74,5.74,0,0,1-.572.84c-.952.982-.819.769-.322,1.888a7.733,7.733,0,0,1,.378.973.774.774,0,0,0,.883.609c.232-.01.465,0,.7.008.621.035,1,.29,1.077.881a33.518,33.518,0,0,1,.274,3.393,12.505,12.505,0,0,1-.239,2.141c-.12.78-.432,1.061-1.205,1.064-1.524,0-1.24.061-1.714,1.226-.131.322-.269.643-.427.953a.619.619,0,0,0,.13.815c.235.225.466.455.677.7a.982.982,0,0,1,.1,1.282,14.694,14.694,0,0,1-4.114,4.111.968.968,0,0,1-1.336-.1.717.717,0,0,1-.151-.143,1.274,1.274,0,0,0-2.008-.336,4.188,4.188,0,0,1-.968.386.691.691,0,0,0-.519.73c0,.279,0,.558-.015.836a.978.978,0,0,1-.9,1.062,29.892,29.892,0,0,1-3.254.275,13.772,13.772,0,0,1-2.28-.248,1.039,1.039,0,0,1-1.045-1.222c0-1.5-.083-1.226-1.179-1.677-.3-.124-.6-.261-.892-.392-.546-.241-.587-.235-1.036.191-.168.16-.324.334-.5.487a1.007,1.007,0,0,1-1.447.129,14.865,14.865,0,0,1-4.016-4.019.921.921,0,0,1,.156-1.426,1.459,1.459,0,0,0,.338-2.255,3.526,3.526,0,0,1-.251-.648c-.251-.65-.3-.719-1.023-.7-1.428.043-1.6-.289-1.8-1.55a14.646,14.646,0,0,1,.1-4.988,1.025,1.025,0,0,1,1.161-.957c1.564,0,1.275-.056,1.76-1.26.13-.323.272-.642.429-.953a.588.588,0,0,0-.12-.757c-.231-.229-.469-.453-.678-.7a.962.962,0,0,1-.1-1.336,14.747,14.747,0,0,1,4.061-4.069.979.979,0,0,1,1.391.113c.228.2.437.417.649.632a.6.6,0,0,0,.752.153c.571-.258,1.151-.5,1.735-.724a.678.678,0,0,0,.486-.683c0-.3,0-.6.02-.906a.98.98,0,0,1,.86-1.027,13.489,13.489,0,0,1,3.6-.257c.669.064,1.341.126,2,.231a1.025,1.025,0,0,1,1.012,1.18c0,1.542.069,1.258,1.21,1.726.322.132.646.265.953.427a.647.647,0,0,0,.87-.159,7.554,7.554,0,0,1,.6-.585.978.978,0,0,1,1.39-.127,14.8,14.8,0,0,1,4.064,4.065A4.062,4.062,0,0,1-1907.879-814.794Zm-2.547,16.353a3.228,3.228,0,0,0-.191-.307,2.551,2.551,0,0,1-.312-2.984c.255-.519.458-1.066.667-1.607a2.372,2.372,0,0,1,2.1-1.677.546.546,0,0,0,.578-.621c0-.72.021-1.44,0-2.159-.017-.529-.082-.579-.608-.652a2.445,2.445,0,0,1-2.059-1.65c-.247-.625-.511-1.245-.777-1.862a2.447,2.447,0,0,1,.26-2.567c.107-.148.207-.3.345-.5a11.4,11.4,0,0,0-2.271-2.275,3.36,3.36,0,0,0-.314.2,2.584,2.584,0,0,1-3.049.282c-.5-.249-1.023-.439-1.542-.639a2.37,2.37,0,0,1-1.675-2.1.545.545,0,0,0-.622-.576c-.72,0-1.44-.021-2.159,0-.528.017-.58.082-.65.608a2.426,2.426,0,0,1-1.65,2.057c-.54.212-1.088.41-1.607.665a2.56,2.56,0,0,1-2.989-.275,3.327,3.327,0,0,0-.344-.212,11.5,11.5,0,0,0-2.269,2.265,3.373,3.373,0,0,0,.2.314,2.555,2.555,0,0,1,.311,2.985c-.254.52-.458,1.066-.666,1.606a2.374,2.374,0,0,1-2.105,1.675.547.547,0,0,0-.576.623c0,.72-.021,1.44,0,2.159.018.527.083.58.61.65a2.415,2.415,0,0,1,2.055,1.651,11.245,11.245,0,0,0,.549,1.353,2.747,2.747,0,0,1-.276,3.415c-.027.031-.026.087-.062.218a11.228,11.228,0,0,0,2.2,2.188,1.447,1.447,0,0,0,.178-.051,1.256,1.256,0,0,0,.176-.111,2.547,2.547,0,0,1,2.984-.31c.52.255,1.065.458,1.607.667a2.37,2.37,0,0,1,1.674,2.1.545.545,0,0,0,.623.576c.72,0,1.44.021,2.159,0,.528-.018.582-.082.65-.608a2.41,2.41,0,0,1,1.584-2.031q1-.414,1.992-.829a2.42,2.42,0,0,1,2.446.246l.562.39A11.384,11.384,0,0,0-1910.426-798.441Z" transform="translate(1955.485 844.576)" fill="#dc4029"/>
    <path id="Path_197" data-name="Path 197" d="M-1919.321-612.779h16.092c.186,0,.372.009.557,0,.343-.018.518.116.513.482-.026,2.017.245,1.642-1.5,1.644q-15.987.019-31.975.006c-1.043,0-1,.068-1-.969.007-1.288-.123-1.161,1.154-1.162Q-1927.4-612.781-1919.321-612.779Z" transform="translate(1955.563 674.09)" fill="#dc4029"/>
    <path id="Path_198" data-name="Path 198" d="M-1893.632-790.558a9.673,9.673,0,0,1,8.945,7.262,9.625,9.625,0,0,1-8.032,11.92,8.646,8.646,0,0,1-7.048-2.358,9.24,9.24,0,0,1-3.2-7.841,9.522,9.522,0,0,1,7.751-8.785C-1894.693-790.456-1894.16-790.494-1893.632-790.558Zm-.343,17.206a7.4,7.4,0,0,0,7.5-7.522,7.517,7.517,0,0,0-7.616-7.6,7.594,7.594,0,0,0-7.493,7.579A7.626,7.626,0,0,0-1893.975-773.352Z" transform="translate(1928.186 818.756)" fill="#dc4029"/>
    <path id="Path_199" data-name="Path 199" d="M-1878.624-756.924c.061-.357.135-.885.246-1.406a1.1,1.1,0,0,0-.36-1.183c-.387-.331-.737-.708-1.1-1.07a1.036,1.036,0,0,1-.335-1.13,1.1,1.1,0,0,1,.995-.748c.483-.064.964-.144,1.448-.2a1.079,1.079,0,0,0,.99-.732c.158-.41.383-.793.571-1.192a1.176,1.176,0,0,1,1.056-.786,1.154,1.154,0,0,1,1.072.761c.222.46.458.913.673,1.376a.776.776,0,0,0,.674.513c.553.058,1.1.172,1.651.249a1.14,1.14,0,0,1,1.012.732,1.055,1.055,0,0,1-.355,1.187,13.06,13.06,0,0,1-1,.969,1.188,1.188,0,0,0-.406,1.36,12.676,12.676,0,0,1,.213,1.3,1.066,1.066,0,0,1-1.666,1.155c-.4-.239-.837-.409-1.229-.654a1.044,1.044,0,0,0-1.224-.012,12.23,12.23,0,0,1-1.358.707C-1877.953-755.312-1878.653-755.777-1878.624-756.924Zm2.458-1.653a1.9,1.9,0,0,1,2.091-.03,5.121,5.121,0,0,1,.1-1.126,5.049,5.049,0,0,1,.587-.958,1.852,1.852,0,0,1-1.71-1.267,2.016,2.016,0,0,1-1.723,1.342C-1876.116-760.108-1876.125-759.406-1876.166-758.577Z" transform="translate(1909.661 798.258)" fill="#dc4029"/>
  </g>
</svg>
