<svg id="cheked-list" xmlns="http://www.w3.org/2000/svg" width="102.477" height="106.218" viewBox="0 0 102.477 106.218">
  <path id="Path_7" data-name="Path 7" d="M184.73,487.336V442.2c0-.422-.006-.845,0-1.267.028-1.619.072-1.679,1.715-1.681q11.877-.011,23.754,0h39.748c.475,0,.951.024,1.425,0,.848-.044,1.3.292,1.261,1.187-.017.368,0,.739,0,1.108q0,20.033,0,40.065c0,2-.035,1.93-1.844,2.693-4.177,1.763-8.331,3.584-12.474,5.425-1.228.546-1.259.643-.671,1.881,1.2,2.525,2.4,5.053,3.733,7.5a8.138,8.138,0,0,1,1.083,4.215,28.932,28.932,0,0,0,.928,8.3,22.481,22.481,0,0,0,5.178,9.664c.9.97.836,1.139-.5,1.4-1.5.3-3.012.531-4.508.843-5.794,1.209-9.49,4.75-11.4,10.281-.529,1.532-.564,1.539-2.1,1.54q-21.773.007-43.546,0c-1.746,0-1.788-.053-1.788-1.941Q184.728,510.378,184.73,487.336Zm18.731,39.413c2.794,0,5.587.008,8.381,0,1.614-.006,1.641-.023,1.643-1.545q.016-8.46,0-16.92c0-1.4-.067-1.481-1.4-1.484q-8.618-.025-17.236,0c-1.4,0-1.515.127-1.519,1.56q-.02,8.381,0,16.762c0,1.554.071,1.62,1.6,1.628C197.769,526.763,200.615,526.752,203.462,526.749Zm-.039-28.587c2.9,0,5.8.014,8.7-.007,1.239-.009,1.324-.119,1.362-1.372.022-.738.007-1.476.006-2.215,0-2.337,0-2.337-2.4-2.265-.211.006-.469-.061-.623.036-.317.2-.809.477-.823.743-.06,1.166-.806,1.182-1.645,1.165-.738-.016-1.477,0-2.215,0q-3.718,0-7.435,0c-.688,0-1.294-.091-1.294-.983,0-3.533-.02-7.066.041-10.6.005-.308.506-.7.863-.88a2.689,2.689,0,0,1,1.092-.054c2.11-.023,2.125-.036,2.1-2.107a2.92,2.92,0,0,1,0-.316c.093-.943-.311-1.335-1.275-1.31-1.686.045-3.375-.006-5.062.017-1.406.018-1.484.093-1.488,1.576q-.018,8.542,0,17.085c0,1.437.059,1.479,1.552,1.486C197.727,498.171,200.575,498.162,203.422,498.162Zm.041-28.753c2.322,0,4.643.018,6.965,0,1.772-.017,2.529.1,2.848-.225.387-.39.273-.952.211-2.913-.034-1.063-.039-1.935-.039-2.512l-1.42-.024-1.349.024-1.15.012a3.469,3.469,0,0,0-.012.681,1.574,1.574,0,0,1,.006.533,1.029,1.029,0,0,1-.174.386c-.267.345-.865.312-1.026.312-3.324,0-6.648-.015-9.972.008-.942.006-1.33-.39-1.316-1.328.029-1.951.005-3.9.005-5.856,0-1.425.024-2.85,0-4.274-.013-.682.184-.879.3-.993a1.147,1.147,0,0,1,.716-.246,7.518,7.518,0,0,1,1.639-.027l1.385.009c.065-1.046.076-1.676.074-2.064,0-.068,0-.237,0-.475,0-.483.02-.873.032-1.123l-3.38-.065c-1.283,0-2.339,0-3.229-.017a1.305,1.305,0,0,0-.978.273,1.385,1.385,0,0,0-.285,1.057c.034,1.265-.03,2.531-.029,3.8,0,4.527-.028,9.054.044,13.58.023,1.446.15,1.464,1.588,1.471C197.764,469.419,200.614,469.408,203.463,469.409Zm27.425-16.075q-5.452,0-10.9,0c-2.257,0-2.257,0-2.2,2.243.035,1.432.056,1.472,1.559,1.48,2.9.016,5.794.005,8.691.005,4.793,0,9.586.007,14.38-.007,1.521,0,1.574-.086,1.6-1.628q0-.237,0-.474c-.022-1.564-.048-1.61-1.592-1.615C238.578,453.327,234.733,453.335,230.888,453.334Zm-.024,11.954v0c3.854,0,7.708.014,11.561-.018.483,0,1.341-.179,1.381-.395a6.554,6.554,0,0,0,.028-2.785c-.081-.309-1.149-.5-1.767-.507-7.39-.031-14.78-.017-22.17-.013-2.16,0-2.16,0-2.114,2.191.03,1.463.062,1.52,1.52,1.525C223.156,465.3,227.01,465.288,230.864,465.288ZM227.853,510.7c-2.847,0-5.694-.009-8.542,0-1.485.007-1.5.04-1.528,1.493-.005.264-.007.528,0,.791.04,1.346.084,1.416,1.464,1.426,2.794.02,5.589.007,8.383.007,2.953,0,5.905.014,8.858-.008,1.356-.01,1.418-.1,1.464-1.443,0-.105,0-.211,0-.316.015-1.945.015-1.951-1.877-1.954Q231.966,510.7,227.853,510.7Zm-13.965-29.023a2.917,2.917,0,0,0-.421-.647,15.151,15.151,0,0,0-1.249-.965c-1.066-.761-1.074-.76-1.842.248-1.148,1.508-2.285,3.023-3.431,4.532-1.792,2.359-1.773,2.337-3.946.2-1.965-1.935-1.364-2.051-3.571.049-.638.606-.638,1.075,0,1.694,1.775,1.724,3.494,3.506,5.259,5.241.849.836.957.825,1.692-.148q3.471-4.6,6.908-9.222C213.5,482.371,213.668,482.043,213.889,481.681Zm-12.612-26.754a3.373,3.373,0,0,0-.583.35c-.5.47-.964.972-1.461,1.442-.516.487-.372.9.071,1.336,1.719,1.7,3.4,3.433,5.15,5.1,1.082,1.03,1.214.988,2.171-.29,2.05-2.739,4.056-5.512,6.125-8.236,1.367-1.8,1.4-1.772-.412-3.127-.042-.032-.082-.066-.125-.1-1.062-.782-1.071-.783-1.848.246-1.49,1.974-2.992,3.939-4.458,5.932-.534.725-1.008.811-1.639.131-.68-.733-1.4-1.428-2.123-2.121A9.35,9.35,0,0,0,201.277,454.927ZM225.8,485.843v0c2.109,0,4.218.008,6.326,0,1.716-.008,1.722-.023,1.726-1.8,0-.105,0-.211,0-.316-.028-1.541-.067-1.6-1.612-1.607-4.059-.013-8.119-.006-12.178,0-2.327,0-2.327,0-2.251,2.368.041,1.283.069,1.34,1.347,1.353C221.367,485.859,223.582,485.843,225.8,485.843Zm-1.04,8.217h5.057c2.129,0,2.129,0,2.083-2.19-.03-1.464-.057-1.516-1.518-1.523-3.371-.016-6.742-.006-10.114-.006-2.647,0-2.639.023-2.5,2.623.044.816.343,1.115,1.141,1.1C220.857,494.037,222.807,494.057,224.756,494.059Zm0,28.573q2.448,0,4.9,0c2.284,0,2.284,0,2.239-2.222-.029-1.456-.047-1.493-1.524-1.5-3.423-.013-6.845,0-10.268,0-2.438,0-2.4,0-2.339,2.446.022.963.368,1.308,1.31,1.287C220.969,522.6,222.865,522.63,224.761,522.633Z" transform="translate(-184.728 -439.248)" fill="#dc4029"/>
  <path id="Path_8" data-name="Path 8" d="M361.013,720.608c.663-1.168,1.2-2.064,1.686-2.987a3.662,3.662,0,0,0,.677-1.726c-.04-.436-.863-.746-1.09-1.229a19.654,19.654,0,0,1-1.171-3.207c-.175-.643.3-.975.937-.933a4.571,4.571,0,0,1,1.237.237,12.961,12.961,0,0,0,7.937.1c1.242-.33,1.425-.145,1.185,1.105a4.988,4.988,0,0,1-1.829,3.392,1.115,1.115,0,0,0-.259,1.036c.592,1.28,1.289,2.512,2.136,4.115.622-1.356,1.112-2.376,1.56-3.415q1-2.324,1.954-4.671a1.348,1.348,0,0,1,1.731-.947c2.108.481,4.214.972,6.334,1.394.992.2,1.245.76,1.227,1.682-.04,2.057-.026,4.116-.006,6.174.014,1.443.079,1.49,1.543,1.521.316.007.634-.016.95,0,.871.044,1.245-.364,1.228-1.231-.025-1.213-.017-2.428.012-3.641a3.744,3.744,0,0,1,.234-.869,3.213,3.213,0,0,1,.829.569,16.712,16.712,0,0,1,3.1,8.834,30.027,30.027,0,0,1,.02,3.165c-.022,1.368-.124,1.558-1.524,1.654-1.47.1-2.952.039-4.428.006-1.9-.041-3.793-.178-5.689-.18q-19.552-.024-39.1-.008c-.475,0-.95-.02-1.424,0-.818.029-1.171-.381-1.1-1.164a29.283,29.283,0,0,1,2.893-11.418,8.84,8.84,0,0,1,1.251-1.472,17.04,17.04,0,0,1,.278,1.789,26.833,26.833,0,0,1,.007,2.69c-.045.971.408,1.351,1.331,1.279a1.454,1.454,0,0,1,.158,0c2.2.072,2.233.046,2.236-2.107,0-1.9.039-3.8-.013-5.7a1.432,1.432,0,0,1,1.3-1.655c2.224-.44,4.449-.877,6.67-1.332.866-.177,1.233.3,1.523,1.008.979,2.391,1.987,4.771,2.988,7.154C360.63,719.86,360.756,720.085,361.013,720.608Z" transform="translate(-290.734 -624.571)" fill="#dc4029"/>
  <path id="Path_9" data-name="Path 9" d="M370.949,603.367c.621-2.937-1.4-6.254-3.035-9.673-.046-.1-.1-.187-.145-.281-.844-1.673-.863-1.721.8-2.392,2.983-1.2,5.988-2.351,8.993-3.5.985-.376,2-.673,3-1.013a14.585,14.585,0,0,1,9.632-.092c4.136,1.418,8.223,2.986,12.3,4.558,1.469.566,1.454.748.734,2.235-.94,1.943-1.939,3.864-2.754,5.858a9.691,9.691,0,0,0-.645,3.2c-.127,3,.084,5.99-.655,8.965-1.232,4.962-3.852,8.8-8.607,10.845a13.768,13.768,0,0,1-18.087-7.849A22.791,22.791,0,0,1,370.949,603.367Zm14.427,15.383a38.766,38.766,0,0,0,3.929-1.041c3.917-1.471,5.748-6.756,5.927-9.97.037-.67-.316-.8-.909-.65-1.02.265-2.058.467-3.073.747a20.045,20.045,0,0,1-11.234.131c-1.161-.343-2.356-.575-3.541-.831-1.039-.224-1.174-.134-.978.884a24.62,24.62,0,0,0,1.03,4.293C378.036,616.193,381.094,618.669,385.376,618.751ZM382.6,594.128a2.57,2.57,0,0,0,2.636,2.867,2.821,2.821,0,1,0,.109-5.633A2.564,2.564,0,0,0,382.6,594.128Z" transform="translate(-309.389 -539.26)" fill="#dc4029"/>
  <path id="Path_10" data-name="Path 10" d="M236.107,669.957c0,1.632.022,3.265-.007,4.9-.022,1.226-.157,1.383-1.369,1.393q-4.9.041-9.794,0c-1.2-.01-1.346-.175-1.355-1.41-.023-3.317.01-6.635-.017-9.952-.008-.943.382-1.338,1.31-1.334q4.976.022,9.952,0c.937,0,1.313.416,1.291,1.35C236.079,666.587,236.107,668.273,236.107,669.957Z" transform="translate(-211.26 -592.482)" fill="#dc4029"/>
</svg>
