<svg id="home" xmlns="http://www.w3.org/2000/svg" width="99.655" height="91.899" viewBox="0 0 99.655 91.899">
  <path id="Path_2" data-name="Path 2" d="M271.2,482.769H256.026v-56.76H187.734v56.66H172.289c-.095-1.572-.262-3.068-.264-4.564-.015-22.158.071-44.316-.088-66.473-.025-3.532,1.013-5.13,4.446-6.237,13.986-4.508,27.83-9.451,41.807-13.986a12.278,12.278,0,0,1,7.111-.026c14.277,4.625,28.455,9.556,42.685,14.326,2.231.748,3.621,1.593,3.606,4.434-.132,23.551-.088,47.1-.109,70.656A17.815,17.815,0,0,1,271.2,482.769Z" transform="translate(-171.936 -390.87)" fill="#dc4029"/>
  <path id="Path_3" data-name="Path 3" d="M251.315,487.808H228.173V464.335h23.142Zm-20.833-20.936v18.25h18.381v-18.25Z" transform="translate(-175.86 -395.997)" fill="#dc4029"/>
  <path id="Path_4" data-name="Path 4" d="M221.092,487.808H197.951V464.335h23.141ZM200.26,466.873v18.25h18.381v-18.25Z" transform="translate(-173.751 -395.997)" fill="#dc4029"/>
  <path id="Path_5" data-name="Path 5" d="M251.315,458.919H228.173V435.447h23.142Zm-20.833-20.935v18.251h18.381V437.984Z" transform="translate(-175.86 -393.981)" fill="#dc4029"/>
  <path id="Path_6" data-name="Path 6" d="M221.092,458.919H197.951V435.447h23.141ZM200.26,437.984v18.251h18.381V437.984Z" transform="translate(-173.751 -393.981)" fill="#dc4029"/>
</svg>
