<svg id="ordar" xmlns="http://www.w3.org/2000/svg" width="61.767" height="36.549" viewBox="0 0 61.767 36.549">
  <path id="Path_236" data-name="Path 236" d="M645.331,458.368a2.174,2.174,0,0,1,2.3-1.343c3.417.047,6.835.023,10.252.014a1.813,1.813,0,0,0,1.941-2.128,1.322,1.322,0,0,0-.994-1.226,4.124,4.124,0,0,0-1.129-.136c-2.855-.011-5.709,0-8.564-.006a1.817,1.817,0,1,1,0-3.617c.639,0,1.279,0,1.988,0,0-1.325,0-2.6,0-3.884a1.783,1.783,0,0,1,1.925-1.905q16.072,0,32.144,0h.55v.679q0,4.915,0,9.83a1.9,1.9,0,0,0,2.14,2.157c4.483,0,8.966-.005,13.449,0a5.486,5.486,0,0,1,5.747,5.444c.029,3.658.017,7.317.014,10.976a1.788,1.788,0,0,1-1.922,1.911c-.984,0-1.968,0-2.962,0-1.135,3.644-3.509,5.749-7.395,5.5-3.368-.212-5.4-2.269-6.331-5.484H670.229c-1.7,4.067-3.7,5.6-7.235,5.525-2.95-.059-5.147-1.921-6.488-5.546-.731,0-1.489-.032-2.244.006-2.672.135-3.273-.436-3.15-3.173.059-1.323.01-2.651.01-4.07h-1.681c-.6,0-1.21-.041-1.808.009a2.084,2.084,0,0,1-2.3-1.335v-.965a2.179,2.179,0,0,1,2.3-1.343c4.921.039,9.843.017,14.765.017.362,0,.725.02,1.084-.008a1.793,1.793,0,0,0,1.569-2.553,1.877,1.877,0,0,0-1.87-1.061c-5.183,0-10.366-.019-15.549.018a2.186,2.186,0,0,1-2.3-1.343Zm18.053,18.694a3.314,3.314,0,1,0-3.334-3.343A3.358,3.358,0,0,0,663.384,477.062Zm31.983,0a3.314,3.314,0,1,0-3.35-3.327A3.357,3.357,0,0,0,695.367,477.063Z" transform="translate(-645.331 -444.134)" fill="#dc4029"/>
  <path id="Path_237" data-name="Path 237" d="M1009.793,456v-8.6c4.965.942,7.624,4.506,9.9,8.6Z" transform="translate(-965.741 -447.005)" fill="#dc4029"/>
</svg>
