<svg xmlns="http://www.w3.org/2000/svg" width="53.463" height="53.463" viewBox="0 0 53.463 53.463">
  <path id="phone" d="M1.253,18.125C-1.942,11.714,1.282,4.638,7.424.952a6.677,6.677,0,0,1,8.819,1.777L20.769,8.9a8.687,8.687,0,0,1,.765,9.022l-1.186,2.373a2.379,2.379,0,0,0-.046,2.164,25.016,25.016,0,0,0,4.629,6.075A25.014,25.014,0,0,0,31,33.162a2.379,2.379,0,0,0,2.164-.046l2.373-1.187a8.688,8.688,0,0,1,9.022.765l6.17,4.525a6.676,6.676,0,0,1,1.777,8.819C48.825,52.181,41.749,55.4,35.338,52.21A75.749,75.749,0,0,1,15.715,37.748,75.747,75.747,0,0,1,1.253,18.125Z" transform="translate(0 0)" fill="#dc4029"/>
</svg>
