<svg xmlns="http://www.w3.org/2000/svg" width="59.752" height="59.769" viewBox="0 0 59.752 59.769">
  <path id="Icon_awesome-rocket" data-name="Icon awesome-rocket" d="M55.959,2.116A1.761,1.761,0,0,0,54.607.765,40.211,40.211,0,0,0,45.467,0C34.032,0,27.173,6.116,22.055,14.183H10.51a5.319,5.319,0,0,0-4.75,2.935L.284,28.065a2.659,2.659,0,0,0,2.381,3.846h11.5l-2.49,2.49a3.546,3.546,0,0,0,0,5.014l5.64,5.641a3.546,3.546,0,0,0,5.015,0l2.49-2.49V54.072a2.659,2.659,0,0,0,3.845,2.381L39.6,50.98a5.309,5.309,0,0,0,2.936-4.753V34.658c8.043-5.13,14.183-12.011,14.183-23.389a39.3,39.3,0,0,0-.759-9.152Zm-13.413,16.5a4.432,4.432,0,1,1,4.432-4.432,4.432,4.432,0,0,1-4.432,4.432Z" transform="translate(1.533 1.5)" fill="#dc4029" stroke="#fff" stroke-width="3"/>
</svg>
