<svg xmlns="http://www.w3.org/2000/svg" width="69.426" height="79.729" viewBox="0 0 69.426 79.729">
  <g id="Group_196" data-name="Group 196" transform="translate(827.618 256.355)">
    <path id="Path_85" data-name="Path 85" d="M-682.489-256.355a21.092,21.092,0,0,1,20.772,18.017,20.529,20.529,0,0,1-3.717,15.348c-4.155,5.862-8.085,11.871-11.864,17.981q-.652,1.055-1.32,2.1a4.526,4.526,0,0,1-7.729.024c-2.317-3.62-4.568-7.283-6.925-10.877-2.034-3.1-4.149-6.152-6.279-9.19a21.188,21.188,0,0,1-3.964-12.722,21,21,0,0,1,17.578-20.306C-684.8-256.162-683.638-256.233-682.489-256.355Zm11.83,21.065a11.834,11.834,0,0,0-11.822-11.821,11.855,11.855,0,0,0-11.859,11.959,11.839,11.839,0,0,0,11.915,11.727A11.813,11.813,0,0,0-670.659-235.29Z" transform="translate(-110.417)" fill="#dc4029"/>
    <path id="Path_86" data-name="Path 86" d="M-713.316,158.8c-1.741.67-3.418,1.318-5.1,1.962-8.709,3.344-17.424,6.674-26.117,10.058a7.732,7.732,0,0,0-1.935,1.415c-1.143.952-2.256,1.94-3.383,2.912-.123.106-.256.2-.41.323-1.267-1.122-2.517-2.227-3.765-3.335q-8.1-7.193-16.2-14.378a.852.852,0,0,1-.276-1.134,4.752,4.752,0,0,1,4.561-3.15c4-.054,8.011-.01,12.017-.027.4,0,.541.243.7.5q2.719,4.312,5.434,8.625a6.31,6.31,0,0,0,6.112,3.182,6.212,6.212,0,0,0,5.012-3.078q2.758-4.351,5.488-8.72a.956.956,0,0,1,.927-.513c3.822.017,7.644.005,11.466.011a4.917,4.917,0,0,1,5.159,4.055C-713.516,157.923-713.425,158.333-713.316,158.8Z" transform="translate(-50.725 -364.612)" fill="#dc4029"/>
    <path id="Path_87" data-name="Path 87" d="M-662.237,316.726c1.075-.915,2.153-1.827,3.224-2.747q6.061-5.206,12.122-10.412a2.451,2.451,0,0,1,.7-.422q6.037-2.332,12.081-4.645c.136-.052.275-.1.51-.178l5.916,18.506H-662.2Z" transform="translate(-147.143 -493.509)" fill="#dc4029"/>
    <path id="Path_88" data-name="Path 88" d="M-822.468,227.465l18.514,16.446c-.884.762-1.712,1.485-2.55,2.2q-4.306,3.657-8.613,7.314a1.607,1.607,0,0,1-1.141.418c-2.113-.021-4.227-.006-6.34-.01a4.848,4.848,0,0,1-4.855-6.177q2.418-9.872,4.864-19.738C-822.563,227.809-822.532,227.7-822.468,227.465Z" transform="translate(0 -430.466)" fill="#dc4029"/>
    <path id="Path_89" data-name="Path 89" d="M-354.9,236.991c.092.343.183.654.26.969,1.5,6.1,3.021,12.189,4.5,18.292a4.82,4.82,0,0,1-4.73,6.048c-2.388.026-4.777,0-7.165.015-.387,0-.532-.136-.646-.493q-3-9.449-6.027-18.89c-.191-.6-.189-.6.388-.824q6.452-2.481,12.905-4.958C-355.269,237.091-355.112,237.054-354.9,236.991Z" transform="translate(-408.197 -438.941)" fill="#dc4029"/>
  </g>
</svg>
