<svg xmlns="http://www.w3.org/2000/svg" width="75.672" height="68.509" viewBox="0 0 75.672 68.509">
  <path id="Vector" d="M20.8,56.114V52.309a6.643,6.643,0,0,1,6.621-6.659h20.8a6.643,6.643,0,0,1,6.621,6.659l0,3.66c.44,8.331-5.716,12.541-16.765,12.541C27.073,68.509,20.8,64.363,20.8,56.114Zm37.443-6.631a10.44,10.44,0,0,0-9.274-7.61l-.745-.025-.4,0A15.239,15.239,0,0,0,52.48,26.633l16.555,0a6.642,6.642,0,0,1,6.618,6.656l0,3.66c.443,8.331-5.716,12.544-16.765,12.544ZM0,37.091V33.286A6.642,6.642,0,0,1,6.618,26.63H23.173a15.292,15.292,0,0,0,4.035,14.646l.613.575-.4,0A10.411,10.411,0,0,0,17.4,49.486l-.129,0C6.269,49.49,0,45.343,0,37.091ZM29.8,38.5a11.457,11.457,0,0,1,0-16.14,11.329,11.329,0,0,1,18.506,3.7,11.386,11.386,0,0,1-10.483,15.78A11.313,11.313,0,0,1,29.8,38.5Zm20.8-19.02a11.457,11.457,0,0,1,0-16.14,11.3,11.3,0,0,1,16.049,0,11.457,11.457,0,0,1,0,16.14,11.308,11.308,0,0,1-16.049,0ZM9,19.484A11.465,11.465,0,0,1,9,3.344a11.3,11.3,0,0,1,16.049,0,11.457,11.457,0,0,1,0,16.14A11.308,11.308,0,0,1,9,19.484Z" fill="#dc4029"/>
</svg>
