<svg xmlns="http://www.w3.org/2000/svg" width="136.835" height="78.656" viewBox="0 0 136.835 78.656">
  <g id="Group_219" data-name="Group 219" transform="translate(832.756 -675.753)">
    <g id="Group_217" data-name="Group 217" transform="translate(-716.191 729.014)">
      <path id="Path_96" data-name="Path 96" d="M-364.092,890.165a3,3,0,0,1-3.1,2.983,2.957,2.957,0,0,1-2.882-2.818,2.99,2.99,0,0,1,2.916-3.167A2.941,2.941,0,0,1-364.092,890.165Z" transform="translate(370.08 -887.162)" fill="#dc4029"/>
    </g>
    <g id="Group_218" data-name="Group 218" transform="translate(-759.153 724.984)">
      <path id="Path_97" data-name="Path 97" d="M-537.115,871.176c.439,0,.88-.025,1.316.005a2.019,2.019,0,0,1,2.012,1.952,1.989,1.989,0,0,1-1.97,1.99,23.566,23.566,0,0,1-2.913,0,2.013,2.013,0,0,1-1.937-1.942,2.041,2.041,0,0,1,1.988-1.993c.5-.038,1-.006,1.5-.006Z" transform="translate(540.608 -871.166)" fill="#dc4029"/>
    </g>
    <path id="Path_98" data-name="Path 98" d="M-698.4,710.211c-2.988-3.525-5.9-7.115-8.813-10.7a14.666,14.666,0,0,0-12.423-5.734c-1.948.058-3.9.01-6.165.01,0-3.635.118-6.744-.028-9.841-.222-4.749-3.378-8.062-8.095-8.1q-21.182-.178-42.361-.01a7.818,7.818,0,0,0-8.09,8.087c-.038,5.2-.063,19.16-.071,25.549h-1.469c-1.539,0-3.081-.023-4.62.013a.93.93,0,0,1-1.005-.642,13.444,13.444,0,0,0-.748-1.517,1.88,1.88,0,0,0-2.416-.872,1.945,1.945,0,0,0-1.124,2.391,3.577,3.577,0,0,1,.161.564h-12.824a10.005,10.005,0,0,0,.166-1.164,1.751,1.751,0,0,0-1.149-1.774,1.883,1.883,0,0,0-2.482.9c-.378.678-.7,1.388-1.056,2.1h-9.768c-.847,0-1.7-.02-2.545.013a1.87,1.87,0,0,0-1.932,1.98c-.008.252,0,.5,0,.756V724.8c-1.156,0-2.189.015-3.22,0a2.15,2.15,0,0,0-2.28,2.287c.073,3.487.025,6.976.025,10.466,0,1.917-.008,3.835,0,5.752a1.946,1.946,0,0,0,2.048,2.084c.219.01.438,0,.66,0q3.11,0,6.223,0c.33,0,.66.033.99.05.06.479.088.854.161,1.222a9.672,9.672,0,0,0,10.884,7.631,9.738,9.738,0,0,0,7.964-7.976c.045-.3.139-.592.222-.93,1.821,0,3.577,0,5.334,0,.713,0,1.428.028,2.141-.005,7.336.01,25.922.005,29.4.005h1.088a9.84,9.84,0,0,0,3.018,6.379,9.382,9.382,0,0,0,6.566,2.648,9.29,9.29,0,0,0,5.855-2.005,9.771,9.771,0,0,0,3.772-7.024c1.063,0,2.071.05,3.068-.01a7.3,7.3,0,0,0,6.724-4.646c.171-.4.31-.806.466-1.209v-4.484h11.476c2.051,5.575,5.616,9.052,11.687,8.966,5.772-.081,9.047-3.58,11-8.571,4.946-1.245,5.991-2.544,6.014-7.49.015-3.5-.1-7,.035-10.493A10.032,10.032,0,0,0-698.4,710.211Zm-121.986,14.542h-2.839c-.187-.688-.247-9.846-.071-11.385h8.42Zm7.12,25.7a5.629,5.629,0,0,1-5.646-5.694,5.737,5.737,0,0,1,5.681-5.606,5.8,5.8,0,0,1,5.648,5.737A5.683,5.683,0,0,1-813.266,750.45Zm8.989-25.806a116.931,116.931,0,0,1-11.753.088l5.49-11.352h6.18C-804.176,714.076-804.113,723.264-804.277,724.644Zm48.163-9.554V700.7c1.758,0,3.368-.111,4.956.03a4.267,4.267,0,0,1,3.487,2.56q1.988,3.949,3.965,7.9,1.285,2.566,2.57,5.13c.136.275.252.559.408.909h-.93q-6.13,0-12.254,0a5.253,5.253,0,0,1-.846-.028,1.464,1.464,0,0,1-1.35-1.539C-756.116,715.469-756.114,715.28-756.114,715.091Zm-23.607-30.52c.191-2.693,1.25-3.751,3.933-4.089a3.09,3.09,0,0,1,.373-.02c13.484,0,26.967-.066,40.449.038,3.759.028,4.777,1.9,4.273,7.246h-48.9A29.627,29.627,0,0,1-779.72,684.571Zm-20.48,40.116V713.393h6.538q2.71,5.6,5.434,11.229A116.143,116.143,0,0,1-800.2,724.687Zm19.1.07a26.711,26.711,0,0,1-2.7.018c-1.839-3.8-3.666-7.568-5.525-11.413h8.115A102.838,102.838,0,0,1-781.1,724.758Zm25.1,25.693a5.611,5.611,0,0,1-5.646-5.588,5.779,5.779,0,0,1,5.664-5.721,5.735,5.735,0,0,1,5.656,5.643A5.552,5.552,0,0,1-756.008,750.45Zm16.056-12.776a3.5,3.5,0,0,1-2.2,3.517,1.515,1.515,0,0,1-.534.166c-1.441.013-2.88.007-4.2.007a29.67,29.67,0,0,0-1.958-2.867,9.018,9.018,0,0,0-7.233-3.263,9.344,9.344,0,0,0-8.488,5.321,1.281,1.281,0,0,1-1.424.874c-.592-.058-1.192-.015-1.789-.023a3.748,3.748,0,0,1-.456-.083V702.756c0-1.811.282-2.094,2.056-2.1q2.5,0,5,0h1.046c.018.428.048.791.048,1.154q0,6.738,0,13.481a5.708,5.708,0,0,0,1.222,3.771,5.116,5.116,0,0,0,4.079,2q6.836.011,13.67.005h1.078a6.374,6.374,0,0,1,.081.673Q-739.946,729.708-739.952,737.674Zm14.177-38.753c11.146-1.582,13.146.519,19.029,9.667h-19.029Zm12.443,39.836a6.866,6.866,0,0,1-6.608-7.1,6.706,6.706,0,0,1,6.88-6.4,6.7,6.7,0,0,1,6.613,6.664A6.866,6.866,0,0,1-713.332,738.758Zm12.534-15.572v7.122c-1.975-2.686-3.255-4.933-5.019-6.692a10.176,10.176,0,0,0-7.52-2.812,9.876,9.876,0,0,0-7.135,2.817,63.92,63.92,0,0,0-4.855,6.4c-1.2-2.862-.474-5.568-.6-8.173s-.03-5.225-.03-8.392c7.843,0,15.187-.02,22.531.01,2.469.01,2.552,1.882,2.771,3.608C-704.65,719.739-704.64,721.2-700.8,723.186Z" transform="translate(0 0)" fill="#dc4029"/>
  </g>
</svg>
