<svg xmlns="http://www.w3.org/2000/svg" width="76.774" height="57.752" viewBox="0 0 76.774 57.752">
  <g id="Group_262" data-name="Group 262" transform="translate(-875.474 73.67)">
    <path id="Path_216" data-name="Path 216" d="M908.757-30.548c.254-.539.5-1.08.762-1.616,1.385-2.867,2.781-5.728,4.151-8.6a2.972,2.972,0,0,1,1.17-1.306,13.945,13.945,0,0,1,5.464-2.45c4.274-.545,8.366-.144,11.906,2.685a2.055,2.055,0,0,1,.818,1.34c.258,1.528.558,3.05.826,4.577.076.436.237.658.738.637a4.3,4.3,0,0,0,1.986-.494,6.559,6.559,0,0,1,7.035.186,3.477,3.477,0,0,0,2.129.249c.108,0,.274-.367.311-.582.241-1.394.471-2.79.668-4.19a2.844,2.844,0,0,1,1-1.8,11.777,11.777,0,0,1,8.3-2.784,14.89,14.89,0,0,1,6.063,1.047,28.547,28.547,0,0,1,3.3,1.9,1.721,1.721,0,0,1,.548.692q2.571,5.107,5.117,10.226a3.732,3.732,0,0,1,.135.423c-.314-.16-.542-.274-.767-.392-7.295-3.818-14.516-3.6-21.6.519a11.87,11.87,0,0,0-2.741,2.531c-1.869,2.129-3.659,4.328-5.472,6.505-.742.891-.725.894-1.5-.022-1.9-2.247-3.85-4.454-5.7-6.744a12.324,12.324,0,0,0-5.111-3.67,21.431,21.431,0,0,0-18.8.906c-.213.111-.425.224-.638.336Z" transform="translate(-26.02 -22.625)" fill="#dc4029"/>
    <path id="Path_217" data-name="Path 217" d="M1077.47,59.267a18.382,18.382,0,1,1,18.368-18.258A18.4,18.4,0,0,1,1077.47,59.267Zm.082-30.713a12.167,12.167,0,1,0,12.082,12.256A12.095,12.095,0,0,0,1077.552,28.554Z" transform="translate(-143.59 -75.185)" fill="#dc4029"/>
    <path id="Path_218" data-name="Path 218" d="M912.164,40.917A18.345,18.345,0,1,1,893.955,22.5,18.391,18.391,0,0,1,912.164,40.917ZM893.845,28.553a12.167,12.167,0,0,0-.068,24.333,12.167,12.167,0,0,0,.068-24.333Z" transform="translate(0 -75.184)" fill="#dc4029"/>
    <path id="Path_219" data-name="Path 219" d="M1103.215-70.049a18.472,18.472,0,0,0-13.116,1.181c.437-2.037,2.858-3.982,5.256-4.458A7.8,7.8,0,0,1,1103.215-70.049Z" transform="translate(-167.787 -0.162)" fill="#dc4029"/>
    <path id="Path_220" data-name="Path 220" d="M965.986-69.059a19,19,0,0,0-13-1.24,7.121,7.121,0,0,1,6.872-3.335C962.464-73.379,965.237-71.449,965.986-69.059Z" transform="translate(-60.594)" fill="#dc4029"/>
  </g>
</svg>
